<svg width="18" height="18" viewBox="0 0 18 18" fill="none" xmlns="http://www.w3.org/2000/svg">
<g clip-path="url(#clip0_3836_19817)">
<path d="M9 17.625C10.7059 17.625 12.3734 17.1192 13.7918 16.1714C15.2102 15.2237 16.3157 13.8767 16.9685 12.3006C17.6213 10.7246 17.7921 8.99044 17.4593 7.31735C17.1265 5.64426 16.305 4.10744 15.0988 2.90121C13.8926 1.69498 12.3557 0.873528 10.6827 0.540731C9.00957 0.207933 7.27537 0.378737 5.69936 1.03154C4.12334 1.68435 2.7763 2.78984 1.82857 4.20821C0.880847 5.62658 0.375 7.29414 0.375 9C0.377581 11.2867 1.28711 13.479 2.90405 15.096C4.521 16.7129 6.7133 17.6224 9 17.625ZM5.2875 6.879C5.21777 6.80935 5.16245 6.72663 5.12471 6.63558C5.08696 6.54454 5.06754 6.44694 5.06754 6.34838C5.06754 6.24982 5.08696 6.15222 5.12471 6.06117C5.16245 5.97012 5.21777 5.88741 5.2875 5.81775L5.81775 5.2875C5.88741 5.21777 5.97012 5.16245 6.06117 5.12471C6.15222 5.08697 6.24981 5.06754 6.34838 5.06754C6.44694 5.06754 6.54453 5.08697 6.63558 5.12471C6.72663 5.16245 6.80935 5.21777 6.879 5.2875L8.86725 7.275C8.88467 7.29246 8.90536 7.30632 8.92814 7.31577C8.95092 7.32522 8.97534 7.33009 9 7.33009C9.02466 7.33009 9.04908 7.32522 9.07186 7.31577C9.09464 7.30632 9.11533 7.29246 9.13275 7.275L11.121 5.2875C11.1907 5.21777 11.2734 5.16245 11.3644 5.12471C11.4555 5.08697 11.5531 5.06754 11.6516 5.06754C11.7502 5.06754 11.8478 5.08697 11.9388 5.12471C12.0299 5.16245 12.1126 5.21777 12.1823 5.2875L12.7125 5.81775C12.7822 5.88741 12.8376 5.97012 12.8753 6.06117C12.913 6.15222 12.9325 6.24982 12.9325 6.34838C12.9325 6.44694 12.913 6.54454 12.8753 6.63558C12.8376 6.72663 12.7822 6.80935 12.7125 6.879L10.725 8.86725C10.7075 8.88467 10.6937 8.90536 10.6842 8.92814C10.6748 8.95092 10.6699 8.97534 10.6699 9C10.6699 9.02467 10.6748 9.04909 10.6842 9.07187C10.6937 9.09465 10.7075 9.11534 10.725 9.13275L12.714 11.121C12.7837 11.1907 12.8391 11.2734 12.8768 11.3644C12.9145 11.4555 12.934 11.5531 12.934 11.6516C12.934 11.7502 12.9145 11.8478 12.8768 11.9388C12.8391 12.0299 12.7837 12.1126 12.714 12.1823L12.1838 12.7125C12.1141 12.7822 12.0314 12.8376 11.9403 12.8753C11.8493 12.913 11.7517 12.9325 11.6531 12.9325C11.5546 12.9325 11.457 12.913 11.3659 12.8753C11.2749 12.8376 11.1922 12.7822 11.1225 12.7125L9.13275 10.725C9.09738 10.6901 9.04969 10.6705 9 10.6705C8.95031 10.6705 8.90262 10.6901 8.86725 10.725L6.879 12.7125C6.80935 12.7822 6.72663 12.8376 6.63558 12.8753C6.54453 12.913 6.44694 12.9325 6.34838 12.9325C6.24981 12.9325 6.15222 12.913 6.06117 12.8753C5.97012 12.8376 5.88741 12.7822 5.81775 12.7125L5.2875 12.1823C5.21777 12.1126 5.16245 12.0299 5.12471 11.9388C5.08696 11.8478 5.06754 11.7502 5.06754 11.6516C5.06754 11.5531 5.08696 11.4555 5.12471 11.3644C5.16245 11.2734 5.21777 11.1907 5.2875 11.121L7.275 9.13275C7.29246 9.11534 7.30632 9.09465 7.31577 9.07187C7.32522 9.04909 7.33009 9.02467 7.33009 9C7.33009 8.97534 7.32522 8.95092 7.31577 8.92814C7.30632 8.90536 7.29246 8.88467 7.275 8.86725L5.2875 6.879Z" fill="#627386"/>
</g>
<defs>
<clipPath id="clip0_3836_19817">
<rect width="18" height="18" fill="white"/>
</clipPath>
</defs>
</svg>
