<svg viewBox="0 0 20 20"
              fill="#627386"
              xmlns="http://www.w3.org/2000/svg"
            >
              <path
                fill-rule="evenodd"
                clip-rule="evenodd"
                d="M14.0458 12.575L19.4867 18.0159C19.8931 18.4229 19.8931 19.0822 19.4867 19.4892C19.0769 19.8889 18.4231 19.8889 18.0133 19.4892L12.5725 14.0484C9.33308 16.5126 4.73826 16.0456 2.06098 12.9799C-0.616305 9.91415 -0.460381 5.29828 2.41768 2.42021C5.29575 -0.457848 9.91161 -0.613772 12.9773 2.06351C16.0431 4.74079 16.5101 9.33562 14.0458 12.575ZM7.91665 2.29169C4.81005 2.29169 2.29165 4.81009 2.29165 7.91669C2.29533 11.0218 4.81158 13.538 7.91665 13.5417C11.0233 13.5417 13.5417 11.0233 13.5417 7.91669C13.5417 4.81009 11.0233 2.29169 7.91665 2.29169Z"
              />
            </svg>