<svg width="11" height="16" viewBox="0 0 11 16" fill="none" xmlns="http://www.w3.org/2000/svg">
<path d="M-2.76585e-06 7.99997C-0.000272658 7.78191 0.045971 7.56631 0.13564 7.36754C0.22531 7.16877 0.356345 6.99141 0.519998 6.8473L7.95466 0.306638C8.20103 0.0999104 8.5185 -0.00222274 8.83919 0.0220771C9.15988 0.0463768 9.45833 0.195181 9.67074 0.436671C9.88314 0.67816 9.99263 0.993168 9.9758 1.31434C9.95897 1.6355 9.81715 1.93734 9.58066 2.1553L3.07933 7.87464C3.06149 7.89028 3.04719 7.90955 3.03739 7.93117C3.02759 7.95278 3.02252 7.97624 3.02252 7.99997C3.02252 8.0237 3.02759 8.04716 3.03739 8.06877C3.04719 8.09039 3.06149 8.10966 3.07933 8.1253L9.58066 13.8446C9.70638 13.9501 9.80974 14.0797 9.88467 14.2257C9.9596 14.3717 10.0046 14.5312 10.017 14.6949C10.0294 14.8585 10.009 15.023 9.95688 15.1786C9.9048 15.3342 9.82214 15.4779 9.71376 15.6011C9.60537 15.7243 9.47345 15.8247 9.32573 15.8962C9.17802 15.9677 9.01751 16.0089 8.85362 16.0175C8.68973 16.0261 8.52578 16.0019 8.3714 15.9462C8.21703 15.8905 8.07534 15.8045 7.95466 15.6933L0.522664 9.15464C0.358607 9.01028 0.227152 8.83265 0.137035 8.63357C0.046919 8.43448 0.000205138 8.2185 -2.76585e-06 7.99997Z" fill="#007CC1"/>
</svg>
