<svg width="14" height="14" viewBox="0 0 14 14" fill="none" xmlns="http://www.w3.org/2000/svg">
<path fill-rule="evenodd" clip-rule="evenodd" d="M0.145844 7.00001C0.145844 3.21456 3.21456 0.145844 7.00001 0.145844C10.7837 0.150023 13.85 3.21629 13.8542 7.00001C13.8542 10.7855 10.7855 13.8542 7.00001 13.8542C3.21456 13.8542 0.145844 10.7855 0.145844 7.00001ZM1.60418 7.00001C1.60418 9.98005 4.01997 12.3958 7.00001 12.3958C9.97871 12.3926 12.3926 9.97871 12.3958 7.00001C12.3958 4.01997 9.98005 1.60418 7.00001 1.60418C4.01997 1.60418 1.60418 4.01997 1.60418 7.00001Z" fill="#007CC1"/>
<path d="M3.65925 6.27084C3.25654 6.27084 2.93008 6.5973 2.93008 7.00001C2.93008 7.40272 3.25654 7.72918 3.65925 7.72918H10.3408C10.7435 7.72918 11.0699 7.40272 11.0699 7.00001C11.0699 6.5973 10.7435 6.27084 10.3408 6.27084L3.65925 6.27084Z" fill="#007CC1"/>
</svg>
