<svg width="14" height="15" viewBox="0 0 14 15" fill="none" xmlns="http://www.w3.org/2000/svg">
<path d="M8.34167 7.10442C8.32808 7.09088 8.31731 7.07478 8.30996 7.05706C8.30261 7.03935 8.29882 7.02035 8.29882 7.00117C8.29882 6.98199 8.30261 6.963 8.30996 6.94528C8.31731 6.92756 8.32808 6.91147 8.34167 6.89792L13.7451 1.49509C13.9092 1.33079 14.0012 1.10804 14.0011 0.875845C14.0009 0.643651 13.9085 0.421033 13.7442 0.256963C13.5799 0.0928938 13.3572 0.00081269 13.125 0.000976781C12.8928 0.00114087 12.6702 0.0935367 12.5061 0.257838L7.10325 5.65834C7.0897 5.67192 7.07361 5.68269 7.05589 5.69005C7.03817 5.6974 7.01918 5.70118 7 5.70118C6.98082 5.70118 6.96182 5.6974 6.94411 5.69005C6.92639 5.68269 6.9103 5.67192 6.89675 5.65834L1.49391 0.257838C1.41268 0.176561 1.31622 0.112081 1.21006 0.0680792C1.10391 0.0240776 0.990121 0.00141633 0.875204 0.00138925C0.64312 0.00133455 0.42052 0.0934771 0.256373 0.257547C0.0922259 0.421616 -2.15715e-05 0.644173 -7.62696e-05 0.876257C-0.000130968 1.10834 0.0920116 1.33094 0.256081 1.49509L5.65833 6.89792C5.67191 6.91147 5.68269 6.92756 5.69004 6.94528C5.69739 6.963 5.70118 6.98199 5.70118 7.00117C5.70118 7.02035 5.69739 7.03935 5.69004 7.05706C5.68269 7.07478 5.67191 7.09088 5.65833 7.10442L0.256081 12.5078C0.174842 12.5891 0.110407 12.6856 0.0664559 12.7918C0.0225043 12.898 -0.000103353 13.0118 -7.62696e-05 13.1267C-2.15715e-05 13.3588 0.0922259 13.5813 0.256373 13.7454C0.33765 13.8266 0.434133 13.8911 0.540312 13.935C0.646491 13.979 0.760288 14.0016 0.875204 14.0015C1.10729 14.0015 1.32985 13.9092 1.49391 13.7451L6.89675 8.34167C6.9103 8.32809 6.92639 8.31732 6.94411 8.30996C6.96182 8.30261 6.98082 8.29883 7 8.29883C7.01918 8.29883 7.03817 8.30261 7.05589 8.30996C7.07361 8.31732 7.0897 8.32809 7.10325 8.34167L12.5061 13.7451C12.6702 13.9092 12.8927 14.0015 13.1248 14.0015C13.3569 14.0016 13.5795 13.9094 13.7436 13.7454C13.9078 13.5813 14 13.3588 14.0001 13.1267C14.0001 12.8946 13.908 12.672 13.7439 12.5078L8.34167 7.10442Z" fill="#007CC1"/>
</svg>
