<svg width="10" height="10" viewBox="0 0 10 10" fill="none" xmlns="http://www.w3.org/2000/svg">
<g clip-path="url(#clip0_23324_5037)">
<path d="M9.77833 1.24333C9.7058 1.11465 9.60036 1.00755 9.47282 0.933016C9.34528 0.858482 9.20022 0.819192 9.0525 0.819168H0.947499C0.799858 0.81924 0.654886 0.858535 0.527418 0.933032C0.39995 1.00753 0.294562 1.11455 0.222039 1.24316C0.149515 1.37176 0.112459 1.51732 0.114664 1.66494C0.116868 1.81257 0.158252 1.95696 0.234583 2.08333L4.28708 8.77917C4.36131 8.90181 4.46593 9.00323 4.59082 9.07362C4.7157 9.14402 4.85664 9.181 5 9.181C5.14336 9.181 5.28429 9.14402 5.40918 9.07362C5.53407 9.00323 5.63868 8.90181 5.71292 8.77917L9.76542 2.08333C9.84177 1.95701 9.8832 1.81267 9.88547 1.66508C9.88774 1.51749 9.85077 1.37195 9.77833 1.24333Z" fill="#627386"/>
</g>
<defs>
<clipPath id="clip0_23324_5037">
<rect width="10" height="10" fill="white"/>
</clipPath>
</defs>
</svg>
