<svg width="11" height="16" viewBox="0 0 11 16" fill="none" xmlns="http://www.w3.org/2000/svg">
<path d="M11 8.00003C11.0003 8.21809 10.954 8.4337 10.8644 8.63246C10.7747 8.83123 10.6437 9.00859 10.48 9.1527L3.04534 15.6934C2.79897 15.9001 2.4815 16.0022 2.16081 15.9779C1.84012 15.9536 1.54167 15.8048 1.32926 15.5633C1.11686 15.3218 1.00737 15.0068 1.0242 14.6857C1.04103 14.3645 1.18285 14.0627 1.41934 13.8447L7.92067 8.12536C7.93851 8.10972 7.95281 8.09045 7.96261 8.06883C7.97241 8.04722 7.97748 8.02376 7.97748 8.00003C7.97748 7.9763 7.97241 7.95284 7.96261 7.93123C7.95281 7.90961 7.93851 7.89034 7.92067 7.8747L1.41934 2.15536C1.29362 2.04987 1.19026 1.92032 1.11533 1.77431C1.0404 1.6283 0.995411 1.46879 0.983011 1.30515C0.970612 1.1415 0.991049 0.977033 1.04312 0.821402C1.0952 0.665771 1.17786 0.522119 1.28624 0.39889C1.39463 0.275661 1.52655 0.175343 1.67426 0.10383C1.82198 0.0323181 1.98249 -0.00894646 2.14638 -0.0175353C2.31027 -0.026125 2.47422 -0.00186545 2.6286 0.0538148C2.78297 0.109495 2.92466 0.195473 3.04534 0.306696L10.4773 6.84536C10.6414 6.98972 10.7728 7.16735 10.863 7.36643C10.9531 7.56552 10.9998 7.7815 11 8.00003Z" fill="#007CC1"/>
</svg>
