<svg width="14" height="14" viewBox="0 0 14 14" fill="none" xmlns="http://www.w3.org/2000/svg">
<g clip-path="url(#clip0_23324_1788)">
<path d="M13.6348 0.167416C13.4462 0.0322083 13.2116 -0.0225473 12.9826 0.015194C12.7537 0.0529353 12.5491 0.180082 12.4139 0.368666L4.22679 11.7833L1.49387 9.04808C1.41263 8.96681 1.31618 8.90232 1.21002 8.85832C1.10386 8.81432 0.990075 8.79166 0.875158 8.79163C0.760242 8.79161 0.646445 8.81421 0.540266 8.85817C0.434087 8.90212 0.337604 8.96655 0.256327 9.04779C0.17505 9.12903 0.11057 9.22548 0.0665679 9.33164C0.0225663 9.4378 -9.49637e-05 9.55159 -0.000122046 9.6665C-0.000149128 9.78142 0.0224585 9.89521 0.0664101 10.0014C0.110362 10.1076 0.174796 10.2041 0.256035 10.2853L3.71812 13.7468C3.80901 13.8343 3.91747 13.9014 4.03629 13.9438C4.15511 13.9861 4.28158 14.0027 4.4073 13.9925C4.53302 13.9822 4.65513 13.9453 4.76551 13.8843C4.87589 13.8232 4.97203 13.7394 5.04753 13.6383L13.836 1.38833C13.9712 1.19974 14.026 0.96516 13.9883 0.736196C13.9505 0.507233 13.8234 0.302638 13.6348 0.167416Z" fill="#48A463"/>
</g>
<defs>
<clipPath id="clip0_23324_1788">
<rect width="14" height="14" fill="white"/>
</clipPath>
</defs>
</svg>
