<svg width="14" height="14" viewBox="0 0 14 14" fill="none" xmlns="http://www.w3.org/2000/svg">
<g clip-path="url(#clip0_23324_1522)">
<path d="M13.4861 11.6667L8.03368 1.25417C7.93486 1.0656 7.78633 0.907669 7.60418 0.797475C7.42203 0.68728 7.2132 0.629028 7.00031 0.629028C6.78741 0.629028 6.57858 0.68728 6.39643 0.797475C6.21428 0.907669 6.06575 1.0656 5.96693 1.25417L0.51393 11.6667C0.420784 11.8445 0.375099 12.0434 0.381293 12.244C0.387487 12.4447 0.445351 12.6403 0.549289 12.8121C0.653227 12.9838 0.799721 13.1258 0.974607 13.2244C1.14949 13.3229 1.34685 13.3747 1.5476 13.3747H12.4524C12.6532 13.3747 12.8505 13.3229 13.0254 13.2244C13.2003 13.1258 13.3468 12.9838 13.4507 12.8121C13.5547 12.6403 13.6125 12.4447 13.6187 12.244C13.6249 12.0434 13.5792 11.8445 13.4861 11.6667ZM6.41668 4.91342C6.41668 4.75871 6.47814 4.61034 6.58753 4.50094C6.69693 4.39155 6.8453 4.33009 7.00001 4.33009C7.15472 4.33009 7.3031 4.39155 7.41249 4.50094C7.52189 4.61034 7.58335 4.75871 7.58335 4.91342V8.41342C7.58335 8.56813 7.52189 8.71651 7.41249 8.8259C7.3031 8.9353 7.15472 8.99676 7.00001 8.99676C6.8453 8.99676 6.69693 8.9353 6.58753 8.8259C6.47814 8.71651 6.41668 8.56813 6.41668 8.41342V4.91342ZM7.02918 11.6276H7.01285C6.7828 11.6269 6.56195 11.5372 6.39648 11.3774C6.23102 11.2176 6.13374 11 6.12501 10.7701C6.12081 10.6558 6.13943 10.5417 6.17979 10.4347C6.22015 10.3276 6.28145 10.2297 6.36009 10.1466C6.43873 10.0635 6.53314 9.99693 6.6378 9.95074C6.74247 9.90455 6.85529 9.87968 6.96968 9.87759H6.98601C7.21601 9.87786 7.43699 9.96709 7.60269 10.1266C7.76839 10.2861 7.86598 10.5035 7.87501 10.7333C7.87954 10.8479 7.86111 10.9623 7.82081 11.0696C7.78052 11.177 7.71916 11.2752 7.64036 11.3585C7.56156 11.4418 7.46689 11.5086 7.36194 11.5548C7.25698 11.601 7.14384 11.6257 7.02918 11.6276Z" fill="#DB3A29"/>
</g>
<defs>
<clipPath id="clip0_23324_1522">
<rect width="14" height="14" fill="white"/>
</clipPath>
</defs>
</svg>
