<svg width="10" height="10" viewBox="0 0 10 10" fill="none" xmlns="http://www.w3.org/2000/svg">
<path d="M9.77833 1.24338C9.70579 1.11469 9.60036 1.00759 9.47282 0.933061C9.34527 0.858528 9.20021 0.819237 9.05249 0.819214H0.947492C0.799851 0.819286 0.654879 0.85858 0.527411 0.933078C0.399942 1.00758 0.294555 1.1146 0.222031 1.2432C0.149507 1.3718 0.112452 1.51736 0.114656 1.66499C0.11686 1.81261 0.158245 1.957 0.234575 2.08338L4.28707 8.77921C4.36131 8.90186 4.46592 9.00328 4.59081 9.07367C4.7157 9.14406 4.85663 9.18105 4.99999 9.18105C5.14335 9.18105 5.28429 9.14406 5.40917 9.07367C5.53406 9.00328 5.63868 8.90186 5.71291 8.77921L9.76541 2.08338C9.84176 1.95706 9.88319 1.81272 9.88546 1.66513C9.88773 1.51754 9.85076 1.37199 9.77833 1.24338Z" fill="#79B9DE"/>
</svg>
