<svg width="13" height="12" viewBox="0 0 13 12" fill="none" xmlns="http://www.w3.org/2000/svg">
<path d="M7.1666 6.0894C7.15496 6.07779 7.14573 6.06399 7.13943 6.04881C7.13312 6.03362 7.12988 6.01734 7.12988 6.0009C7.12988 5.98446 7.13312 5.96818 7.13943 5.95299C7.14573 5.93781 7.15496 5.92401 7.1666 5.9124L11.7981 1.2814C11.9387 1.14057 12.0177 0.949642 12.0175 0.750619C12.0174 0.551596 11.9382 0.360781 11.7974 0.22015C11.6565 0.0795186 11.4656 0.000591959 11.2666 0.00073261C11.0676 0.00087326 10.8767 0.0800697 10.7361 0.2209L6.1051 4.8499C6.09349 4.86154 6.0797 4.87078 6.06451 4.87708C6.04933 4.88338 6.03305 4.88662 6.0166 4.88662C6.00016 4.88662 5.98388 4.88338 5.9687 4.87708C5.95351 4.87078 5.93972 4.86154 5.9281 4.8499L1.2971 0.2209C1.22747 0.151233 1.1448 0.0959647 1.0538 0.058249C0.962811 0.0205333 0.865281 0.00110937 0.766781 0.00108615C0.567852 0.00103927 0.377051 0.0800186 0.236354 0.22065C0.0956567 0.361281 0.0165874 0.552044 0.0165405 0.750973C0.0164937 0.949902 0.095473 1.1407 0.236104 1.2814L4.8666 5.9124C4.87824 5.92401 4.88748 5.93781 4.89378 5.95299C4.90008 5.96818 4.90333 5.98446 4.90333 6.0009C4.90333 6.01734 4.90008 6.03362 4.89378 6.04881C4.88748 6.06399 4.87824 6.07779 4.8666 6.0894L0.236104 10.7209C0.166471 10.7906 0.111241 10.8733 0.0735681 10.9643C0.0358953 11.0553 0.0165173 11.1528 0.0165405 11.2513C0.0165874 11.4503 0.0956567 11.641 0.236354 11.7816C0.30602 11.8513 0.38872 11.9065 0.479731 11.9442C0.570741 11.9819 0.668281 12.0012 0.766781 12.0012C0.96571 12.0012 1.15647 11.9221 1.2971 11.7814L5.9281 7.1499C5.93972 7.13826 5.95351 7.12902 5.9687 7.12272C5.98388 7.11642 6.00016 7.11318 6.0166 7.11318C6.03305 7.11318 6.04933 7.11642 6.06451 7.12272C6.0797 7.12902 6.09349 7.13826 6.1051 7.1499L10.7361 11.7814C10.8767 11.9221 11.0675 12.0012 11.2664 12.0012C11.4654 12.0013 11.6562 11.9223 11.7969 11.7816C11.9376 11.641 12.0166 11.4503 12.0167 11.2513C12.0167 11.0524 11.9377 10.8616 11.7971 10.7209L7.1666 6.0894Z" fill="currentcolor"/>
</svg>
