<svg width="10" height="10" viewBox="0 0 10 10" fill="none" xmlns="http://www.w3.org/2000/svg">
<path d="M9.77851 1.2435C9.70598 1.11481 9.60054 1.00772 9.473 0.933183C9.34546 0.85865 9.2004 0.81936 9.05267 0.819336H0.947675C0.800034 0.819408 0.655062 0.858703 0.527594 0.9332C0.400126 1.0077 0.294738 1.11472 0.222214 1.24332C0.149691 1.37192 0.112635 1.51748 0.114839 1.66511C0.117043 1.81273 0.158428 1.95712 0.234758 2.0835L4.28726 8.77934C4.36149 8.90198 4.46611 9.0034 4.59099 9.07379C4.71588 9.14418 4.85682 9.18117 5.00017 9.18117C5.14353 9.18117 5.28447 9.14418 5.40936 9.07379C5.53424 9.0034 5.63886 8.90198 5.71309 8.77934L9.76559 2.0835C9.84195 1.95718 9.88338 1.81284 9.88565 1.66525C9.88791 1.51766 9.85094 1.37212 9.77851 1.2435Z" fill="currentcolor"/>
</svg>
