<svg width="14" height="14" viewBox="0 0 14 14" fill="none" xmlns="http://www.w3.org/2000/svg">
<path d="M13.9923 6.99994C13.9917 6.80132 13.9492 6.60505 13.8673 6.42408C13.7855 6.2431 13.6662 6.0815 13.5174 5.94994L6.99634 0.210523C6.82789 0.0726284 6.61248 0.00551464 6.39552 0.023326C6.17856 0.0411374 5.97698 0.142483 5.83328 0.306003C5.68957 0.469524 5.61496 0.682448 5.62517 0.899901C5.63538 1.11735 5.72961 1.32235 5.888 1.47169L10.9263 5.90502C10.9483 5.92463 10.964 5.95048 10.971 5.97916C10.9781 6.00784 10.9763 6.03799 10.9659 6.06562C10.9555 6.09326 10.9369 6.11707 10.9126 6.13391C10.8884 6.15075 10.8595 6.15983 10.83 6.15994H0.846836C0.624054 6.15994 0.410397 6.24844 0.252866 6.40597C0.0953357 6.5635 0.00683594 6.77716 0.00683594 6.99994C0.00683594 7.22272 0.0953357 7.43638 0.252866 7.59391C0.410397 7.75144 0.624054 7.83994 0.846836 7.83994H10.8283C10.8578 7.84022 10.8865 7.84943 10.9107 7.86635C10.9349 7.88326 10.9535 7.9071 10.9639 7.93473C10.9743 7.96237 10.9761 7.9925 10.9691 8.02118C10.962 8.04986 10.9465 8.07575 10.9245 8.09544L5.88625 12.5288C5.79814 12.5999 5.72533 12.6882 5.6722 12.7882C5.61907 12.8883 5.58673 12.998 5.5771 13.1109C5.56748 13.2237 5.58077 13.3374 5.6162 13.4449C5.65162 13.5525 5.70843 13.6518 5.78322 13.7369C5.85801 13.822 5.94923 13.891 6.05139 13.9399C6.15356 13.9888 6.26456 14.0166 6.37771 14.0215C6.49087 14.0264 6.60385 14.0083 6.70986 13.9684C6.81587 13.9285 6.91272 13.8676 6.99459 13.7894L13.5168 8.04994C13.6658 7.91848 13.7852 7.75692 13.8672 7.57593C13.9491 7.39493 13.9917 7.19862 13.9923 6.99994Z" fill="currentcolor"/>
</svg>
