<svg width="20" height="21" viewBox="0 0 20 21" fill="none" xmlns="http://www.w3.org/2000/svg">
<g clip-path="url(#clip0_17336_12693)">
<path d="M6.25016 9.21045H5.41683C5.19582 9.21045 4.98385 9.29825 4.82757 9.45453C4.67129 9.61081 4.5835 9.82277 4.5835 10.0438C4.5835 10.2648 4.67129 10.4768 4.82757 10.633C4.98385 10.7893 5.19582 10.8771 5.41683 10.8771H6.25016C6.47118 10.8771 6.68314 10.7893 6.83942 10.633C6.9957 10.4768 7.0835 10.2648 7.0835 10.0438C7.0835 9.82277 6.9957 9.61081 6.83942 9.45453C6.68314 9.29825 6.47118 9.21045 6.25016 9.21045Z" fill="#1E394E"/>
<path d="M10.4167 9.21045H9.58333C9.36232 9.21045 9.15036 9.29825 8.99408 9.45453C8.8378 9.61081 8.75 9.82277 8.75 10.0438C8.75 10.2648 8.8378 10.4768 8.99408 10.633C9.15036 10.7893 9.36232 10.8771 9.58333 10.8771H10.4167C10.6377 10.8771 10.8496 10.7893 11.0059 10.633C11.1622 10.4768 11.25 10.2648 11.25 10.0438C11.25 9.82277 11.1622 9.61081 11.0059 9.45453C10.8496 9.29825 10.6377 9.21045 10.4167 9.21045Z" fill="#1E394E"/>
<path d="M14.5832 9.21045H13.7498C13.5288 9.21045 13.3169 9.29825 13.1606 9.45453C13.0043 9.61081 12.9165 9.82277 12.9165 10.0438C12.9165 10.2648 13.0043 10.4768 13.1606 10.633C13.3169 10.7893 13.5288 10.8771 13.7498 10.8771H14.5832C14.8042 10.8771 15.0161 10.7893 15.1724 10.633C15.3287 10.4768 15.4165 10.2648 15.4165 10.0438C15.4165 9.82277 15.3287 9.61081 15.1724 9.45453C15.0161 9.29825 14.8042 9.21045 14.5832 9.21045Z" fill="#1E394E"/>
<path d="M6.25016 12.5439H5.41683C5.19582 12.5439 4.98385 12.6317 4.82757 12.788C4.67129 12.9443 4.5835 13.1563 4.5835 13.3773C4.5835 13.5983 4.67129 13.8103 4.82757 13.9665C4.98385 14.1228 5.19582 14.2106 5.41683 14.2106H6.25016C6.47118 14.2106 6.68314 14.1228 6.83942 13.9665C6.9957 13.8103 7.0835 13.5983 7.0835 13.3773C7.0835 13.1563 6.9957 12.9443 6.83942 12.788C6.68314 12.6317 6.47118 12.5439 6.25016 12.5439Z" fill="#1E394E"/>
<path d="M10.4167 12.5439H9.58333C9.36232 12.5439 9.15036 12.6317 8.99408 12.788C8.8378 12.9443 8.75 13.1563 8.75 13.3773C8.75 13.5983 8.8378 13.8103 8.99408 13.9665C9.15036 14.1228 9.36232 14.2106 9.58333 14.2106H10.4167C10.6377 14.2106 10.8496 14.1228 11.0059 13.9665C11.1622 13.8103 11.25 13.5983 11.25 13.3773C11.25 13.1563 11.1622 12.9443 11.0059 12.788C10.8496 12.6317 10.6377 12.5439 10.4167 12.5439Z" fill="#1E394E"/>
<path d="M14.5832 12.5439H13.7498C13.5288 12.5439 13.3169 12.6317 13.1606 12.788C13.0043 12.9443 12.9165 13.1563 12.9165 13.3773C12.9165 13.5983 13.0043 13.8103 13.1606 13.9665C13.3169 14.1228 13.5288 14.2106 13.7498 14.2106H14.5832C14.8042 14.2106 15.0161 14.1228 15.1724 13.9665C15.3287 13.8103 15.4165 13.5983 15.4165 13.3773C15.4165 13.1563 15.3287 12.9443 15.1724 12.788C15.0161 12.6317 14.8042 12.5439 14.5832 12.5439Z" fill="#1E394E"/>
<path d="M6.25016 15.877H5.41683C5.19582 15.877 4.98385 15.9647 4.82757 16.121C4.67129 16.2773 4.5835 16.4893 4.5835 16.7103C4.5835 16.9313 4.67129 17.1433 4.82757 17.2995C4.98385 17.4558 5.19582 17.5436 5.41683 17.5436H6.25016C6.47118 17.5436 6.68314 17.4558 6.83942 17.2995C6.9957 17.1433 7.0835 16.9313 7.0835 16.7103C7.0835 16.4893 6.9957 16.2773 6.83942 16.121C6.68314 15.9647 6.47118 15.877 6.25016 15.877Z" fill="#1E394E"/>
<path d="M10.4167 15.877H9.58333C9.36232 15.877 9.15036 15.9647 8.99408 16.121C8.8378 16.2773 8.75 16.4893 8.75 16.7103C8.75 16.9313 8.8378 17.1433 8.99408 17.2995C9.15036 17.4558 9.36232 17.5436 9.58333 17.5436H10.4167C10.6377 17.5436 10.8496 17.4558 11.0059 17.2995C11.1622 17.1433 11.25 16.9313 11.25 16.7103C11.25 16.4893 11.1622 16.2773 11.0059 16.121C10.8496 15.9647 10.6377 15.877 10.4167 15.877Z" fill="#1E394E"/>
<path d="M14.5832 15.877H13.7498C13.5288 15.877 13.3169 15.9647 13.1606 16.121C13.0043 16.2773 12.9165 16.4893 12.9165 16.7103C12.9165 16.9313 13.0043 17.1433 13.1606 17.2995C13.3169 17.4558 13.5288 17.5436 13.7498 17.5436H14.5832C14.8042 17.5436 15.0161 17.4558 15.1724 17.2995C15.3287 17.1433 15.4165 16.9313 15.4165 16.7103C15.4165 16.4893 15.3287 16.2773 15.1724 16.121C15.0161 15.9647 14.8042 15.877 14.5832 15.877Z" fill="#1E394E"/>
<path d="M17.9165 2.96045H15.6248C15.5696 2.96045 15.5166 2.9385 15.4775 2.89943C15.4385 2.86036 15.4165 2.80737 15.4165 2.75212V1.29378C15.4165 1.07277 15.3287 0.860807 15.1724 0.704527C15.0161 0.548247 14.8042 0.460449 14.5832 0.460449C14.3622 0.460449 14.1502 0.548247 13.9939 0.704527C13.8376 0.860807 13.7498 1.07277 13.7498 1.29378V5.25212C13.7498 5.41788 13.684 5.57685 13.5668 5.69406C13.4496 5.81127 13.2906 5.87712 13.1248 5.87712C12.9591 5.87712 12.8001 5.81127 12.6829 5.69406C12.5657 5.57685 12.4998 5.41788 12.4998 5.25212V3.37712C12.4998 3.26661 12.4559 3.16063 12.3778 3.08249C12.2997 3.00435 12.1937 2.96045 12.0832 2.96045H6.87484C6.81973 2.96045 6.76686 2.93861 6.72782 2.89972C6.68877 2.86083 6.66672 2.80806 6.6665 2.75295V1.29378C6.6665 1.07277 6.57871 0.860807 6.42243 0.704527C6.26615 0.548247 6.05418 0.460449 5.83317 0.460449C5.61216 0.460449 5.4002 0.548247 5.24392 0.704527C5.08763 0.860807 4.99984 1.07277 4.99984 1.29378V5.25212C4.99984 5.41788 4.93399 5.57685 4.81678 5.69406C4.69957 5.81127 4.5406 5.87712 4.37484 5.87712C4.20908 5.87712 4.05011 5.81127 3.9329 5.69406C3.81569 5.57685 3.74984 5.41788 3.74984 5.25212V3.37712C3.74984 3.26661 3.70594 3.16063 3.6278 3.08249C3.54966 3.00435 3.44368 2.96045 3.33317 2.96045H2.08317C1.64114 2.96045 1.21722 3.13604 0.904659 3.4486C0.592099 3.76117 0.416504 4.18509 0.416504 4.62712V18.7938C0.416504 19.2358 0.592099 19.6597 0.904659 19.9723C1.21722 20.2849 1.64114 20.4604 2.08317 20.4604H17.9165C18.3585 20.4604 18.7825 20.2849 19.095 19.9723C19.4076 19.6597 19.5832 19.2358 19.5832 18.7938V4.62712C19.5832 4.18509 19.4076 3.76117 19.095 3.4486C18.7825 3.13604 18.3585 2.96045 17.9165 2.96045ZM17.9165 18.3771C17.9165 18.4876 17.8726 18.5936 17.7945 18.6717C17.7163 18.7499 17.6103 18.7938 17.4998 18.7938H2.49984C2.38933 18.7938 2.28335 18.7499 2.20521 18.6717C2.12707 18.5936 2.08317 18.4876 2.08317 18.3771V8.37712C2.08317 8.26661 2.12707 8.16063 2.20521 8.08249C2.28335 8.00435 2.38933 7.96045 2.49984 7.96045H17.4998C17.6103 7.96045 17.7163 8.00435 17.7945 8.08249C17.8726 8.16063 17.9165 8.26661 17.9165 8.37712V18.3771Z" fill="#1E394E"/>
</g>
<defs>
<clipPath id="clip0_17336_12693">
<rect width="20" height="20" fill="white" transform="translate(0 0.460449)"/>
</clipPath>
</defs>
</svg>
