<svg width="18" height="18" viewBox="0 0 18 18" fill="none" xmlns="http://www.w3.org/2000/svg">
<path d="M10.725 9.13398C10.7075 9.11656 10.6937 9.09587 10.6842 9.07309C10.6748 9.05031 10.6699 9.02589 10.6699 9.00123C10.6699 8.97656 10.6748 8.95214 10.6842 8.92937C10.6937 8.90659 10.7075 8.88589 10.725 8.86848L17.6722 1.92198C17.8832 1.71073 18.0016 1.42434 18.0014 1.12581C18.0011 0.827272 17.8823 0.541049 17.6711 0.330102C17.4599 0.119156 17.1735 0.000765869 16.8749 0.000976844C16.5764 0.00118782 16.2902 0.119983 16.0792 0.331227L9.13272 7.27473C9.11531 7.29219 9.09461 7.30604 9.07184 7.3155C9.04906 7.32495 9.02464 7.32981 8.99997 7.32981C8.97531 7.32981 8.95089 7.32495 8.92811 7.3155C8.90533 7.30604 8.88464 7.29219 8.86722 7.27473L1.92072 0.331227C1.81627 0.226728 1.69226 0.143825 1.55577 0.0872514C1.41928 0.0306779 1.27299 0.00154198 1.12524 0.00150716C0.826845 0.00143683 0.540644 0.119906 0.329598 0.330852C0.118552 0.541799 -5.17129e-05 0.827944 -0.000122039 1.12634C-0.000192365 1.42473 0.118277 1.71093 0.329223 1.92198L7.27497 8.86848C7.29243 8.88589 7.30629 8.90659 7.31574 8.92937C7.32519 8.95214 7.33006 8.97656 7.33006 9.00123C7.33006 9.02589 7.32519 9.05031 7.31574 9.07309C7.30629 9.09587 7.29243 9.11656 7.27497 9.13398L0.329223 16.0812C0.224773 16.1857 0.141928 16.3098 0.0854193 16.4463C0.0289101 16.5828 -0.000156861 16.7291 -0.000122039 16.8769C-5.17129e-05 17.1753 0.118552 17.4614 0.329598 17.6724C0.434098 17.7768 0.558147 17.8596 0.694663 17.9162C0.831179 17.9727 0.977489 18.0017 1.12524 18.0017C1.42363 18.0016 1.70978 17.883 1.92072 17.672L8.86722 10.7247C8.88464 10.7073 8.90533 10.6934 8.92811 10.684C8.95089 10.6745 8.97531 10.6696 8.99997 10.6696C9.02464 10.6696 9.04906 10.6745 9.07184 10.684C9.09461 10.6934 9.11531 10.7073 9.13272 10.7247L16.0792 17.672C16.2902 17.883 16.5763 18.0016 16.8747 18.0017C17.1731 18.0018 17.4593 17.8833 17.6703 17.6724C17.8814 17.4614 18 17.1753 18.0001 16.8769C18.0001 16.5785 17.8817 16.2923 17.6707 16.0812L10.725 9.13398Z" fill="#627386"/>
</svg>
