<svg width="16" height="16" viewBox="0 0 16 16" fill="none" xmlns="http://www.w3.org/2000/svg">
<g clip-path="url(#clip0_1190_242128)">
<path d="M8.98863 16.2935C10.505 16.2935 11.9872 15.8439 13.248 15.0015C14.5088 14.1591 15.4914 12.9617 16.0717 11.5608C16.652 10.1599 16.8038 8.61837 16.508 7.13118C16.2122 5.64399 15.482 4.27793 14.4098 3.20572C13.3376 2.13352 11.9715 1.40334 10.4843 1.10752C8.99713 0.811701 7.45562 0.963527 6.05472 1.5438C4.65382 2.12407 3.45645 3.10673 2.61403 4.3675C1.7716 5.62828 1.32196 7.11055 1.32196 8.62687C1.32425 10.6595 2.13273 12.6082 3.57001 14.0455C5.00729 15.4828 6.95601 16.2912 8.98863 16.2935ZM5.68863 6.74154C5.62664 6.67963 5.57747 6.6061 5.54392 6.52517C5.51037 6.44424 5.4931 6.35749 5.4931 6.26988C5.4931 6.18226 5.51037 6.09551 5.54392 6.01458C5.57747 5.93365 5.62664 5.86012 5.68863 5.79821L6.15996 5.32688C6.22188 5.26489 6.2954 5.21572 6.37633 5.18217C6.45727 5.14862 6.54402 5.13135 6.63163 5.13135C6.71924 5.13135 6.80599 5.14862 6.88692 5.18217C6.96785 5.21572 7.04138 5.26489 7.10329 5.32688L8.87063 7.09354C8.88611 7.10906 8.9045 7.12138 8.92475 7.12978C8.945 7.13818 8.9667 7.14251 8.98863 7.14251C9.01055 7.14251 9.03226 7.13818 9.05251 7.12978C9.07275 7.12138 9.09115 7.10906 9.10663 7.09354L10.874 5.32688C10.9359 5.26489 11.0094 5.21572 11.0903 5.18217C11.1713 5.14862 11.258 5.13135 11.3456 5.13135C11.4332 5.13135 11.52 5.14862 11.6009 5.18217C11.6819 5.21572 11.7554 5.26489 11.8173 5.32688L12.2886 5.79821C12.3506 5.86012 12.3998 5.93365 12.4333 6.01458C12.4669 6.09551 12.4842 6.18226 12.4842 6.26988C12.4842 6.35749 12.4669 6.44424 12.4333 6.52517C12.3998 6.6061 12.3506 6.67963 12.2886 6.74154L10.522 8.50887C10.5064 8.52436 10.4941 8.54275 10.4857 8.563C10.4773 8.58325 10.473 8.60495 10.473 8.62687C10.473 8.6488 10.4773 8.6705 10.4857 8.69075C10.4941 8.711 10.5064 8.72939 10.522 8.74487L12.29 10.5122C12.3519 10.5741 12.4011 10.6476 12.4347 10.7286C12.4682 10.8095 12.4855 10.8963 12.4855 10.9839C12.4855 11.0715 12.4682 11.1582 12.4347 11.2392C12.4011 11.3201 12.3519 11.3936 12.29 11.4555L11.8186 11.9269C11.7567 11.9889 11.6832 12.038 11.6023 12.0716C11.5213 12.1051 11.4346 12.1224 11.347 12.1224C11.2594 12.1224 11.1726 12.1051 11.0917 12.0716C11.0107 12.038 10.9372 11.9889 10.8753 11.9269L9.10663 10.1602C9.07519 10.1292 9.0328 10.1118 8.98863 10.1118C8.94446 10.1118 8.90207 10.1292 8.87063 10.1602L7.10329 11.9269C7.04138 11.9889 6.96785 12.038 6.88692 12.0716C6.80599 12.1051 6.71924 12.1224 6.63163 12.1224C6.54402 12.1224 6.45727 12.1051 6.37633 12.0716C6.2954 12.038 6.22188 11.9889 6.15996 11.9269L5.68863 11.4555C5.62664 11.3936 5.57747 11.3201 5.54392 11.2392C5.51037 11.1582 5.4931 11.0715 5.4931 10.9839C5.4931 10.8963 5.51037 10.8095 5.54392 10.7286C5.57747 10.6476 5.62664 10.5741 5.68863 10.5122L7.45529 8.74487C7.47081 8.72939 7.48313 8.711 7.49153 8.69075C7.49993 8.6705 7.50426 8.6488 7.50426 8.62687C7.50426 8.60495 7.49993 8.58325 7.49153 8.563C7.48313 8.54275 7.47081 8.52436 7.45529 8.50887L5.68863 6.74154Z" fill="#627386"/>
</g>
<defs>
<clipPath id="clip0_1190_242128">
<rect width="16" height="16" fill="white" transform="translate(0.988647 0.626953)"/>
</clipPath>
</defs>
</svg>
