<svg width="16" height="16" viewBox="0 0 16 16" fill="none" xmlns="http://www.w3.org/2000/svg">
<path fill-rule="evenodd" clip-rule="evenodd" d="M11.8299 10.6869L16.1826 15.0396C16.5078 15.3652 16.5078 15.8926 16.1826 16.2183C15.8548 16.538 15.3318 16.538 15.0039 16.2183L10.6513 11.8656C8.05975 13.837 4.38389 13.4634 2.24207 11.0108C0.100242 8.55822 0.224981 4.86553 2.52743 2.56308C4.82988 0.260626 8.52258 0.135887 10.9752 2.27771C13.4277 4.41954 13.8014 8.0954 11.8299 10.6869ZM6.92661 2.46025C4.44133 2.46025 2.42661 4.47497 2.42661 6.96025C2.42955 9.44432 4.44255 11.4573 6.92661 11.4603C9.41189 11.4603 11.4266 9.44554 11.4266 6.96025C11.4266 4.47497 9.41189 2.46025 6.92661 2.46025Z" fill="#627386"/>
</svg>
