<svg width="14" height="14" viewBox="0 0 14 14" fill="none" xmlns="http://www.w3.org/2000/svg">
<path d="M7 0C5.61553 0 4.26216 0.410543 3.11101 1.17971C1.95987 1.94888 1.06266 3.04213 0.532846 4.32122C0.003033 5.6003 -0.13559 7.00776 0.134506 8.36563C0.404603 9.7235 1.07129 10.9708 2.05026 11.9497C3.02922 12.9287 4.2765 13.5954 5.63437 13.8655C6.99224 14.1356 8.3997 13.997 9.67879 13.4672C10.9579 12.9373 12.0511 12.0401 12.8203 10.889C13.5895 9.73785 14 8.38447 14 7C13.998 5.1441 13.2599 3.36479 11.9475 2.05247C10.6352 0.74015 8.8559 0.0020073 7 0V0ZM7 11.0833C6.82694 11.0833 6.65777 11.032 6.51388 10.9359C6.36999 10.8397 6.25783 10.7031 6.19161 10.5432C6.12538 10.3833 6.10805 10.2074 6.14182 10.0376C6.17558 9.8679 6.25891 9.71199 6.38128 9.58961C6.50366 9.46724 6.65957 9.38391 6.8293 9.35015C6.99903 9.31638 7.17497 9.33371 7.33485 9.39994C7.49474 9.46617 7.63139 9.57832 7.72754 9.72221C7.82369 9.8661 7.875 10.0353 7.875 10.2083C7.875 10.4404 7.78282 10.663 7.61872 10.8271C7.45463 10.9911 7.23207 11.0833 7 11.0833ZM7.93334 7.53667C7.82927 7.58209 7.74071 7.65689 7.67854 7.75191C7.61637 7.84693 7.58328 7.95803 7.58334 8.07158C7.58334 8.22629 7.52188 8.37467 7.41248 8.48406C7.30309 8.59346 7.15471 8.65492 7 8.65492C6.84529 8.65492 6.69692 8.59346 6.58752 8.48406C6.47813 8.37467 6.41667 8.22629 6.41667 8.07158C6.41662 7.73103 6.51593 7.39786 6.70244 7.11291C6.88895 6.82797 7.15455 6.60364 7.46667 6.46742C7.65947 6.38327 7.82593 6.24856 7.94844 6.07755C8.07094 5.90653 8.14493 5.70558 8.16256 5.49595C8.1802 5.28633 8.14083 5.07584 8.04862 4.88676C7.95641 4.69768 7.81479 4.53706 7.63876 4.42188C7.46273 4.30671 7.25883 4.24127 7.04865 4.2325C6.83847 4.22373 6.62983 4.27195 6.44481 4.37205C6.25979 4.47216 6.10529 4.62043 5.99764 4.80117C5.89 4.98191 5.83323 5.18839 5.83334 5.39875C5.83334 5.55346 5.77188 5.70183 5.66248 5.81123C5.55309 5.92062 5.40471 5.98208 5.25 5.98208C5.09529 5.98208 4.94692 5.92062 4.83752 5.81123C4.72813 5.70183 4.66667 5.55346 4.66667 5.39875C4.66666 4.97807 4.78039 4.56522 4.9958 4.20388C5.21122 3.84254 5.52032 3.54616 5.89039 3.34611C6.26045 3.14605 6.67772 3.04977 7.09802 3.06744C7.51833 3.08511 7.92604 3.21609 8.27801 3.4465C8.62997 3.67691 8.9131 3.99819 9.09743 4.37634C9.28175 4.75448 9.36042 5.17543 9.3251 5.59462C9.28978 6.01381 9.14179 6.41566 8.89679 6.75763C8.65179 7.0996 8.31889 7.36898 7.93334 7.53725V7.53667Z" fill="#627386"/>
</svg>
