<svg width="24" height="16" viewBox="0 0 24 16" fill="none" xmlns="http://www.w3.org/2000/svg">
<path d="M11.1141 10.556C11.3487 10.79 11.6666 10.9214 11.9981 10.9214C12.3295 10.9214 12.6474 10.79 12.8821 10.556L22.5681 0.870001C22.6338 0.80448 22.68 0.721945 22.7015 0.63164C22.723 0.541335 22.719 0.446826 22.6898 0.358696C22.6607 0.270567 22.6075 0.192299 22.5364 0.132656C22.4653 0.0730135 22.3789 0.0343519 22.2871 0.0210014C22.192 0.00699992 22.0961 -1.87866e-05 22.0001 1.47098e-06H2.00005C1.90333 -0.000116842 1.80674 0.00690213 1.71105 0.0210014C1.61919 0.0343519 1.53285 0.0730135 1.46171 0.132656C1.39058 0.192299 1.33745 0.270567 1.30828 0.358696C1.27911 0.446826 1.27506 0.541335 1.29656 0.63164C1.31807 0.721945 1.36429 0.80448 1.43005 0.870001L11.1141 10.556Z" fill="white"/>
<path d="M23.888 1.83201C23.8546 1.81782 23.8177 1.81395 23.782 1.8209C23.7464 1.82785 23.7136 1.8453 23.688 1.87101L17.488 8.07101C17.4412 8.11805 17.415 8.18168 17.415 8.24801C17.415 8.31435 17.4412 8.37798 17.488 8.42501L22.531 13.468C22.6027 13.5372 22.6598 13.6199 22.6992 13.7114C22.7385 13.8029 22.7593 13.9013 22.7602 14.0009C22.7611 14.1004 22.7422 14.1992 22.7045 14.2914C22.6668 14.3836 22.6112 14.4673 22.5408 14.5378C22.4704 14.6083 22.3867 14.664 22.2945 14.7017C22.2024 14.7395 22.1036 14.7585 22.0041 14.7577C21.9045 14.7569 21.806 14.7362 21.7145 14.697C21.623 14.6577 21.5402 14.6006 21.471 14.529L16.428 9.48601C16.4048 9.46273 16.3772 9.44426 16.3468 9.43166C16.3164 9.41905 16.2839 9.41257 16.251 9.41257C16.2181 9.41257 16.1856 9.41905 16.1552 9.43166C16.1248 9.44426 16.0972 9.46273 16.074 9.48601L13.945 11.615C13.4293 12.1304 12.7301 12.4199 12.001 12.4199C11.2719 12.4199 10.5727 12.1304 10.057 11.615L7.926 9.48801C7.87897 9.44124 7.81533 9.41498 7.749 9.41498C7.68267 9.41498 7.61903 9.44124 7.572 9.48801L2.529 14.531C2.38748 14.6676 2.198 14.7431 2.00135 14.7413C1.8047 14.7395 1.61663 14.6605 1.47764 14.5214C1.33865 14.3823 1.25986 14.1941 1.25824 13.9975C1.25663 13.8008 1.33231 13.6114 1.469 13.47L6.512 8.42701C6.55878 8.37998 6.58503 8.31635 6.58503 8.25001C6.58503 8.18368 6.55878 8.12005 6.512 8.07301L0.312 1.87301C0.286508 1.84707 0.253752 1.82945 0.21805 1.82249C0.182347 1.81553 0.145373 1.81954 0.112 1.83401C0.0791449 1.8477 0.0510241 1.87072 0.0311174 1.90022C0.0112108 1.92973 0.000392021 1.96442 0 2.00001L0 14C0 14.5304 0.210714 15.0392 0.585786 15.4142C0.960859 15.7893 1.46957 16 2 16H22C22.5304 16 23.0391 15.7893 23.4142 15.4142C23.7893 15.0392 24 14.5304 24 14V2.00001C24.0001 1.96405 23.9895 1.92887 23.9696 1.89895C23.9497 1.86902 23.9212 1.84572 23.888 1.83201Z" fill="white"/>
</svg>
