<svg width="80" height="80" viewBox="0 0 80 80" fill="none" xmlns="http://www.w3.org/2000/svg">
<g clip-path="url(#clip0_15747_44038)">
<mask id="path-1-inside-1_15747_44038" fill="white">
<path d="M37.0467 48.52C37.829 49.3 38.8886 49.738 39.9933 49.738C41.0981 49.738 42.1577 49.3 42.94 48.52L75.2267 16.2333C75.4459 16.0149 75.5999 15.7398 75.6716 15.4388C75.7433 15.1378 75.7298 14.8227 75.6326 14.529C75.5353 14.2352 75.3582 13.9743 75.1211 13.7755C74.884 13.5767 74.5962 13.4478 74.29 13.4033C73.9733 13.3567 73.6535 13.3333 73.3333 13.3333H6.66667C6.34428 13.3329 6.02229 13.3563 5.70334 13.4033C5.39712 13.4478 5.10934 13.5767 4.87222 13.7755C4.6351 13.9743 4.45801 14.2352 4.36078 14.529C4.26355 14.8227 4.25002 15.1378 4.32171 15.4388C4.3934 15.7398 4.54747 16.0149 4.76667 16.2333L37.0467 48.52Z"/>
</mask>
<path d="M37.0467 48.52C37.829 49.3 38.8886 49.738 39.9933 49.738C41.0981 49.738 42.1577 49.3 42.94 48.52L75.2267 16.2333C75.4459 16.0149 75.5999 15.7398 75.6716 15.4388C75.7433 15.1378 75.7298 14.8227 75.6326 14.529C75.5353 14.2352 75.3582 13.9743 75.1211 13.7755C74.884 13.5767 74.5962 13.4478 74.29 13.4033C73.9733 13.3567 73.6535 13.3333 73.3333 13.3333H6.66667C6.34428 13.3329 6.02229 13.3563 5.70334 13.4033C5.39712 13.4478 5.10934 13.5767 4.87222 13.7755C4.6351 13.9743 4.45801 14.2352 4.36078 14.529C4.26355 14.8227 4.25002 15.1378 4.32171 15.4388C4.3934 15.7398 4.54747 16.0149 4.76667 16.2333L37.0467 48.52Z" fill="white" stroke="#627386" stroke-width="4" mask="url(#path-1-inside-1_15747_44038)"/>
<mask id="path-2-inside-2_15747_44038" fill="white">
<path d="M79.6267 19.44C79.5153 19.3927 79.3922 19.3798 79.2734 19.403C79.1546 19.4261 79.0455 19.4843 78.96 19.57L58.2933 40.2367C58.1374 40.3934 58.0499 40.6056 58.0499 40.8267C58.0499 41.0478 58.1374 41.2599 58.2933 41.4167L72.5694 55.7415C72.8083 55.972 72.9988 56.2477 73.13 56.5527C73.2612 56.8576 73.3303 57.1857 73.3333 57.5176C73.3364 57.8495 73.2733 58.1788 73.1477 58.4861C73.0222 58.7934 72.8367 59.0726 72.602 59.3074C72.3674 59.5423 72.0884 59.728 71.7812 59.8539C71.474 59.9797 71.1449 60.0431 70.8129 60.0404C70.481 60.0377 70.1529 59.9689 69.8478 59.838C69.5427 59.7071 69.2668 59.5168 69.0361 59.2781L54.76 44.9533C54.6826 44.8757 54.5906 44.8142 54.4894 44.7721C54.3882 44.7301 54.2796 44.7085 54.17 44.7085C54.0604 44.7085 53.9519 44.7301 53.8506 44.7721C53.7494 44.8142 53.6574 44.8757 53.58 44.9533L46.4833 52.05C44.7644 53.768 42.4336 54.733 40.0033 54.733C37.5731 54.733 35.2423 53.768 33.5233 52.05L26.42 44.96C26.2632 44.8041 26.0511 44.7166 25.83 44.7166C25.6089 44.7166 25.3968 44.8041 25.24 44.96L10.9025 59.2781C10.4308 59.7333 9.79918 59.985 9.14369 59.979C8.4882 59.973 7.86129 59.7098 7.39798 59.246C6.93468 58.7823 6.67205 58.1551 6.66667 57.4996C6.66128 56.8442 6.91357 56.2128 7.36919 55.7415C7.82482 55.2702 21.7067 41.4233 21.7067 41.4233C21.8626 41.2666 21.9501 41.0544 21.9501 40.8333C21.9501 40.6122 21.8626 40.4001 21.7067 40.2433L1.04 19.5767C0.955026 19.4902 0.845841 19.4315 0.726833 19.4082C0.607825 19.385 0.484578 19.3984 0.373333 19.4467C0.263816 19.4923 0.17008 19.569 0.103725 19.6674C0.0373692 19.7657 0.00130674 19.8814 0 20L0 60C0 61.7681 0.702379 63.4638 1.95262 64.714C3.20286 65.9643 4.89856 66.6667 6.66667 66.6667H73.3333C75.1014 66.6667 76.7971 65.9643 78.0474 64.714C79.2976 63.4638 80 61.7681 80 60V20C80.0004 19.8801 79.9652 19.7628 79.8987 19.6631C79.8322 19.5634 79.7375 19.4857 79.6267 19.44Z"/>
</mask>
<path d="M79.6267 19.44C79.5153 19.3927 79.3922 19.3798 79.2734 19.403C79.1546 19.4261 79.0455 19.4843 78.96 19.57L58.2933 40.2367C58.1374 40.3934 58.0499 40.6056 58.0499 40.8267C58.0499 41.0478 58.1374 41.2599 58.2933 41.4167L72.5694 55.7415C72.8083 55.972 72.9988 56.2477 73.13 56.5527C73.2612 56.8576 73.3303 57.1857 73.3333 57.5176C73.3364 57.8495 73.2733 58.1788 73.1477 58.4861C73.0222 58.7934 72.8367 59.0726 72.602 59.3074C72.3674 59.5423 72.0884 59.728 71.7812 59.8539C71.474 59.9797 71.1449 60.0431 70.8129 60.0404C70.481 60.0377 70.1529 59.9689 69.8478 59.838C69.5427 59.7071 69.2668 59.5168 69.0361 59.2781L54.76 44.9533C54.6826 44.8757 54.5906 44.8142 54.4894 44.7721C54.3882 44.7301 54.2796 44.7085 54.17 44.7085C54.0604 44.7085 53.9519 44.7301 53.8506 44.7721C53.7494 44.8142 53.6574 44.8757 53.58 44.9533L46.4833 52.05C44.7644 53.768 42.4336 54.733 40.0033 54.733C37.5731 54.733 35.2423 53.768 33.5233 52.05L26.42 44.96C26.2632 44.8041 26.0511 44.7166 25.83 44.7166C25.6089 44.7166 25.3968 44.8041 25.24 44.96L10.9025 59.2781C10.4308 59.7333 9.79918 59.985 9.14369 59.979C8.4882 59.973 7.86129 59.7098 7.39798 59.246C6.93468 58.7823 6.67205 58.1551 6.66667 57.4996C6.66128 56.8442 6.91357 56.2128 7.36919 55.7415C7.82482 55.2702 21.7067 41.4233 21.7067 41.4233C21.8626 41.2666 21.9501 41.0544 21.9501 40.8333C21.9501 40.6122 21.8626 40.4001 21.7067 40.2433L1.04 19.5767C0.955026 19.4902 0.845841 19.4315 0.726833 19.4082C0.607825 19.385 0.484578 19.3984 0.373333 19.4467C0.263816 19.4923 0.17008 19.569 0.103725 19.6674C0.0373692 19.7657 0.00130674 19.8814 0 20L0 60C0 61.7681 0.702379 63.4638 1.95262 64.714C3.20286 65.9643 4.89856 66.6667 6.66667 66.6667H73.3333C75.1014 66.6667 76.7971 65.9643 78.0474 64.714C79.2976 63.4638 80 61.7681 80 60V20C80.0004 19.8801 79.9652 19.7628 79.8987 19.6631C79.8322 19.5634 79.7375 19.4857 79.6267 19.44Z" fill="white" stroke="#627386" stroke-width="4" mask="url(#path-2-inside-2_15747_44038)"/>
</g>
<defs>
<clipPath id="clip0_15747_44038">
<rect width="80" height="80" fill="white"/>
</clipPath>
</defs>
</svg>
