<svg width="128" height="21" viewBox="0 0 128 21" fill="none" xmlns="http://www.w3.org/2000/svg">
<path fill-rule="evenodd" clip-rule="evenodd" d="M18.5732 2.88901C16.6491 1.00522 13.7641 0.427345 11.2401 1.42019C8.76441 2.39403 7.10398 4.69498 6.98383 7.29724C4.50347 7.56849 2.35412 9.15655 1.422 11.4556C0.418174 13.9314 1.01948 16.7547 2.95039 18.6316C4.88299 20.5069 7.77189 21.0734 10.2933 20.0715C12.7571 19.0925 14.4061 16.8003 14.5272 14.2112C16.9944 13.9396 19.1351 12.3625 20.072 10.0751C21.0852 7.60165 20.4955 4.77447 18.5732 2.88901ZM11.8455 7.18043L8.12387 7.19698C8.33427 4.29595 10.8123 2.02517 13.8123 2.04646C16.9071 2.06842 19.4105 4.52164 19.4329 7.55451C19.4554 10.5874 16.9885 13.0759 13.8942 13.1418C13.8869 13.1419 13.8796 13.1422 13.8724 13.1426L9.87792 13.1451L9.87727 14.3129L13.3865 14.3107C13.1754 17.1992 10.7105 19.4652 7.71729 19.4554C4.6206 19.4454 2.10603 17.0032 2.07149 13.9722C2.03697 10.9431 4.49224 8.4478 7.58525 8.36719L11.8496 8.34823L11.8455 7.18043Z" fill="#181818"/>
<path d="M7.79908 11.6034C8.96001 11.6034 9.90113 12.5445 9.90113 13.7054C9.90113 14.8664 8.96001 15.8075 7.79908 15.8075C6.63814 15.8075 5.69702 14.8664 5.69702 13.7054C5.69702 12.5445 6.63814 11.6034 7.79908 11.6034Z" fill="#FF5B42"/>
<path fill-rule="evenodd" clip-rule="evenodd" d="M6.28036 13.7047C6.28036 14.5431 6.96006 15.2228 7.79851 15.2228C8.63696 15.2228 9.31666 14.5431 9.31666 13.7047C9.31666 12.8662 8.63696 12.1865 7.79851 12.1865C6.96006 12.1865 6.28036 12.8662 6.28036 13.7047ZM7.79851 16.3906C6.31509 16.3906 5.11255 15.1881 5.11255 13.7047C5.11255 12.2213 6.31509 11.0187 7.79851 11.0187C9.28192 11.0187 10.4845 12.2213 10.4845 13.7047C10.4845 15.1881 9.28192 16.3906 7.79851 16.3906Z" fill="#181818"/>
<path d="M13.786 5.6914C14.9469 5.6914 15.8881 6.63252 15.8881 7.79345C15.8881 8.95439 14.9469 9.89551 13.786 9.89551C12.6251 9.89551 11.684 8.95439 11.684 7.79345C11.684 6.63252 12.6251 5.6914 13.786 5.6914Z" fill="#007CC1"/>
<path fill-rule="evenodd" clip-rule="evenodd" d="M12.2686 7.79536C12.2686 8.63382 12.9483 9.31352 13.7868 9.31352C14.6252 9.31352 15.3049 8.63382 15.3049 7.79536C15.3049 6.95691 14.6252 6.27721 13.7868 6.27721C12.9483 6.27721 12.2686 6.95691 12.2686 7.79536ZM13.7868 10.4813C12.3034 10.4813 11.1008 9.27878 11.1008 7.79536C11.1008 6.31195 12.3034 5.10941 13.7868 5.10941C15.2702 5.10941 16.4727 6.31195 16.4727 7.79536C16.4727 9.27878 15.2702 10.4813 13.7868 10.4813Z" fill="#181818"/>
<g clip-path="url(#clip0_2_8)">
<path d="M78.2071 16.6449V2.50806H73.6V3.07733C75.2654 3.07733 75.6234 2.88757 75.6234 4.20005V7.47334C75.0008 7.14127 74.2537 6.9357 73.3509 6.9357C70.2692 6.9357 67.1874 9.37091 67.1874 13.3716C67.1874 14.6999 67.5765 15.8384 68.2146 16.7398L67.8567 17.1825C67.452 17.6095 67.1874 17.7992 66.7205 17.7992C66.2224 17.7992 65.7555 17.4039 65.7555 16.5658V10.9048C65.7555 8.40631 64.1212 6.9357 61.5997 6.9357C59.2495 6.9357 57.3817 8.3905 56.6191 10.3671L57.2105 10.5885C57.9109 9.1179 59.0627 8.23237 60.4324 8.23237C62.3935 8.23237 63.1873 9.54485 63.1873 11.1262V12.0591L60.1678 13.0553C57.9732 13.8302 56.4479 14.6525 56.4479 16.3128C56.4479 16.7714 56.5724 17.1825 56.7747 17.5146C56.4479 17.7202 56.0899 17.8625 55.6697 17.8625C54.2844 17.8625 53.6774 16.8979 53.6774 15.5854V6.88826H56.588V6.11342H53.6774V3.07733H51.0937V6.11342H49.5061V6.88826H51.0937V15.8701C51.0937 17.6727 52.5567 18.9062 54.4089 18.9062C55.4829 18.9062 56.3856 18.5899 57.1327 18.0048C57.7086 18.5899 58.5958 18.9062 59.5296 18.9062C61.1484 18.9062 62.4558 17.9732 63.2184 17.056C63.5453 18.2104 64.5414 18.9062 65.771 18.9062C66.8605 18.9062 67.701 18.2894 68.2302 17.5462L68.5415 17.1509C69.5065 18.2578 70.9229 18.9062 72.4793 18.9062C73.74 18.9062 74.8607 18.416 75.6234 17.7676V18.6373H79.9347V18.0681C78.5495 18.0681 78.2071 17.9574 78.2071 16.6449ZM63.1873 16.5816C62.5492 17.2458 61.7242 17.6886 60.8993 17.6886C59.6697 17.6886 58.8448 16.9295 58.8448 15.791C58.8448 14.5576 59.7164 13.9409 60.8371 13.5614L63.1873 12.7549V16.5816ZM75.6234 17.1667C75.063 17.5462 74.3626 17.7518 73.6778 17.7518C71.2186 17.7518 69.8022 15.5538 69.8022 12.7865C69.8022 9.38672 71.6855 7.69473 73.849 7.69473C74.5027 7.69473 75.1253 7.82123 75.6234 8.07424V17.1667Z" fill="#181818"/>
<path d="M30.6109 6.93579C27.498 6.93579 24.5408 9.371 24.5408 12.9131C24.5408 16.4236 27.498 18.8904 30.6109 18.8904C33.7238 18.8904 36.6811 16.4236 36.6811 12.9131C36.6811 9.371 33.7238 6.93579 30.6109 6.93579ZM30.6109 18.1947C28.6187 18.1947 27.2334 16.392 27.2334 12.9131C27.2334 9.40262 28.6187 7.59994 30.6109 7.59994C32.6032 7.59994 33.9884 9.40262 33.9884 12.9131C33.9729 16.392 32.6032 18.1947 30.6109 18.1947Z" fill="#181818"/>
<path d="M91.6082 16.7399L91.2502 17.1668C90.8456 17.5938 90.581 17.7835 90.114 17.7835C89.616 17.7835 89.149 17.3882 89.149 16.5501V10.9049C89.149 8.4064 87.5147 6.93579 84.9933 6.93579C82.643 6.93579 80.7753 8.39059 80.0126 10.3672L80.6041 10.5886C81.3045 9.11799 82.4563 8.23246 83.8259 8.23246C85.7871 8.23246 86.5809 9.54494 86.5809 11.1262V12.0592L83.5614 13.0554C81.3668 13.8303 79.8414 14.6684 79.8414 16.3287C79.8414 17.9575 81.3045 18.9062 82.9232 18.9062C84.5419 18.9062 85.8493 17.9733 86.612 17.0561C86.9389 18.2105 87.935 18.9062 89.1646 18.9062C90.2541 18.9062 91.0946 18.2895 91.6238 17.5463L91.9351 17.151L91.6082 16.7399ZM86.5653 16.5817C85.9272 17.2459 85.1022 17.6886 84.2773 17.6886C83.0477 17.6886 82.2228 16.9296 82.2228 15.7911C82.2228 14.5577 83.11 13.941 84.2151 13.5614L86.5653 12.755V16.5817Z" fill="#181818"/>
<path d="M48.7433 16.6448V10.8414C48.7433 8.69086 47.5449 6.9198 44.93 6.9198C42.9378 6.9198 41.4747 8.3746 40.9144 9.41826V7.20443H36.603V7.7737C37.9883 7.7737 38.3307 7.85277 38.3307 9.16525V16.6448C38.3307 17.9573 37.9727 18.068 36.603 18.068V18.6372H42.6732V18.068C41.2879 18.068 40.9144 17.9573 40.9144 16.6448V9.9559C41.3502 9.07037 42.3463 8.29553 43.5604 8.29553C45.2569 8.29553 46.1752 9.33919 46.1752 11.3V16.629C46.1752 17.9415 45.8172 18.0522 44.4475 18.0522V18.6214H50.4866V18.0522C49.0858 18.068 48.7433 17.9573 48.7433 16.6448Z" fill="#181818"/>
</g>
<path fill-rule="evenodd" clip-rule="evenodd" d="M97.1092 18.422C97.958 18.9221 98.9639 19.1721 100.127 19.1721C100.906 19.1721 101.638 19.05 102.324 18.8058C103.022 18.5499 103.627 18.1895 104.139 17.7243C104.325 17.5499 104.418 17.3464 104.418 17.1138C104.418 16.9394 104.371 16.7941 104.278 16.6778C104.185 16.5615 104.075 16.5033 103.947 16.5033C103.807 16.5033 103.639 16.5673 103.441 16.6952C102.848 17.1603 102.307 17.4859 101.819 17.672C101.33 17.8581 100.778 17.9511 100.162 17.9511C98.8127 17.9511 97.772 17.515 97.0394 16.6429C96.3184 15.7591 95.9579 14.5033 95.9579 12.8753C95.9579 11.2589 96.3184 10.0147 97.0394 9.14257C97.772 8.25881 98.8127 7.81693 100.162 7.81693C100.79 7.81693 101.342 7.90996 101.819 8.09601C102.307 8.28207 102.848 8.60766 103.441 9.0728C103.639 9.20071 103.807 9.26467 103.947 9.26467C104.075 9.26467 104.185 9.20652 104.278 9.09024C104.371 8.96233 104.418 8.81697 104.418 8.65417C104.418 8.42161 104.325 8.21811 104.139 8.04368C103.627 7.57855 103.022 7.22388 102.324 6.97968C101.638 6.72386 100.906 6.59595 100.127 6.59595C98.9639 6.59595 97.958 6.85177 97.1092 7.36342C96.2603 7.86344 95.6033 8.59022 95.1381 9.54375C94.6846 10.4856 94.4579 11.5962 94.4579 12.8753C94.4579 14.166 94.6846 15.2882 95.1381 16.2417C95.6033 17.1836 96.2603 17.9104 97.1092 18.422ZM112.476 13.6776C112.476 11.445 111.412 10.3287 109.284 10.3287C108.772 10.3287 108.255 10.3984 107.732 10.538C107.22 10.6659 106.761 10.8461 106.354 11.0787C106.133 11.2066 105.97 11.3345 105.865 11.4624C105.772 11.5787 105.726 11.7183 105.726 11.8811C105.726 12.0439 105.772 12.1776 105.865 12.2822C105.958 12.3869 106.075 12.4392 106.214 12.4392C106.342 12.4392 106.563 12.3404 106.877 12.1427C107.691 11.7124 108.493 11.4973 109.284 11.4973C109.924 11.4973 110.383 11.6601 110.662 11.9857C110.953 12.3113 111.098 12.823 111.098 13.5207V14.0963H110.714C109.389 14.0963 108.354 14.1777 107.609 14.3405C106.865 14.4916 106.33 14.7475 106.005 15.1079C105.679 15.4568 105.516 15.951 105.516 16.5906C105.516 17.0673 105.65 17.5034 105.918 17.8988C106.185 18.2941 106.545 18.6023 106.999 18.8232C107.464 19.0441 107.97 19.1546 108.516 19.1546C109.11 19.1546 109.633 19.0209 110.086 18.7534C110.54 18.4744 110.877 18.0848 111.098 17.5848V18.422C111.098 18.6313 111.162 18.8 111.29 18.9279C111.418 19.0558 111.586 19.1197 111.796 19.1197C112.005 19.1197 112.168 19.0558 112.284 18.9279C112.412 18.8 112.476 18.6313 112.476 18.422V13.6776ZM110.418 17.3406C109.976 17.8057 109.406 18.0383 108.708 18.0383C108.208 18.0383 107.79 17.8929 107.452 17.6022C107.127 17.2999 106.964 16.922 106.964 16.4685C106.964 16.0731 107.075 15.7766 107.296 15.5789C107.528 15.3696 107.912 15.2242 108.447 15.1428C108.982 15.0498 109.761 15.0033 110.784 15.0033H111.098V15.5091C111.098 16.2533 110.871 16.8638 110.418 17.3406ZM118.743 10.3635C119.231 10.3287 119.475 10.5263 119.475 10.9566C119.475 11.1427 119.423 11.2938 119.318 11.4101C119.214 11.5148 119.033 11.5787 118.778 11.602L118.254 11.6543C117.475 11.7241 116.894 12.0032 116.51 12.4915C116.138 12.9683 115.952 13.5323 115.952 14.1835V18.422C115.952 18.6546 115.888 18.829 115.76 18.9453C115.632 19.0616 115.463 19.1197 115.254 19.1197C115.045 19.1197 114.87 19.0616 114.731 18.9453C114.603 18.8174 114.539 18.643 114.539 18.422V11.0613C114.539 10.8403 114.609 10.6717 114.748 10.5554C114.888 10.4275 115.056 10.3635 115.254 10.3635C115.44 10.3635 115.597 10.4275 115.725 10.5554C115.853 10.6717 115.917 10.8345 115.917 11.0438V12.0206C116.161 11.5089 116.504 11.1194 116.946 10.8519C117.4 10.5845 117.917 10.4275 118.498 10.381L118.743 10.3635ZM126.902 17.2185C126.809 17.1138 126.698 17.0615 126.57 17.0615C126.466 17.0615 126.262 17.1487 125.96 17.3231C125.588 17.5325 125.239 17.7011 124.913 17.829C124.588 17.9453 124.198 18.0034 123.745 18.0034C121.954 18.0034 121.006 17.0034 120.902 15.0033H126.518C126.727 15.0033 126.879 14.951 126.972 14.8463C127.065 14.7416 127.111 14.573 127.111 14.3405C127.111 13.1079 126.786 12.1311 126.134 11.4101C125.483 10.6891 124.605 10.3287 123.5 10.3287C122.721 10.3287 122.024 10.5147 121.407 10.8868C120.803 11.2589 120.332 11.7822 119.995 12.4567C119.657 13.1195 119.489 13.887 119.489 14.7591C119.489 16.1312 119.867 17.2069 120.622 17.986C121.39 18.7651 122.431 19.1546 123.745 19.1546C124.187 19.1546 124.64 19.0965 125.105 18.9802C125.57 18.8523 126.012 18.6662 126.431 18.422C126.838 18.1778 127.041 17.9104 127.041 17.6197C127.041 17.4569 126.995 17.3231 126.902 17.2185ZM121.721 12.1253C122.175 11.6601 122.774 11.4275 123.518 11.4275C124.251 11.4275 124.82 11.6601 125.227 12.1253C125.634 12.5788 125.849 13.2358 125.873 14.0963H120.936C121.018 13.2474 121.279 12.5904 121.721 12.1253Z" fill="#1E394E"/>
<defs>
<clipPath id="clip0_2_8">
<rect width="67.6283" height="16.5246" fill="white" transform="translate(24.5409 2.50818)"/>
</clipPath>
</defs>
</svg>
