<svg width="92" height="22" viewBox="0 0 92 22" fill="none" xmlns="http://www.w3.org/2000/svg">
<path d="M3.02 17.05C2.86667 17.05 2.74 17.0033 2.64 16.91C2.54667 16.81 2.5 16.6833 2.5 16.53V10.81H0.5C0.18 10.81 0.02 10.6667 0.02 10.38C0.02 10.24 0.06 10.1333 0.14 10.06C0.226667 9.98667 0.346667 9.95 0.5 9.95H5.54C5.69333 9.95 5.81 9.98667 5.89 10.06C5.97667 10.1333 6.02 10.24 6.02 10.38C6.02 10.6667 5.86 10.81 5.54 10.81H3.54V16.53C3.54 16.6833 3.49333 16.81 3.4 16.91C3.30667 17.0033 3.18 17.05 3.02 17.05ZM9.8232 15.77C9.91654 15.77 9.9932 15.8067 10.0532 15.88C10.1132 15.9533 10.1432 16.0467 10.1432 16.16C10.1432 16.3533 10.0232 16.5167 9.7832 16.65C9.54987 16.7833 9.2932 16.8867 9.0132 16.96C8.73987 17.0333 8.47654 17.07 8.2232 17.07C7.44987 17.07 6.83987 16.8467 6.3932 16.4C5.94654 15.9467 5.7232 15.33 5.7232 14.55C5.7232 14.05 5.81987 13.6067 6.0132 13.22C6.2132 12.8333 6.48987 12.5333 6.8432 12.32C7.2032 12.1067 7.60987 12 8.0632 12C8.71654 12 9.2332 12.21 9.6132 12.63C9.9932 13.05 10.1832 13.6167 10.1832 14.33C10.1832 14.5967 10.0632 14.73 9.8232 14.73H6.7332C6.79987 15.7633 7.29654 16.28 8.2232 16.28C8.46987 16.28 8.6832 16.2467 8.8632 16.18C9.0432 16.1133 9.2332 16.0267 9.4332 15.92C9.4532 15.9067 9.50654 15.88 9.5932 15.84C9.68654 15.7933 9.7632 15.77 9.8232 15.77ZM8.0832 12.74C7.69654 12.74 7.38654 12.8633 7.1532 13.11C6.91987 13.3567 6.77987 13.7033 6.7332 14.15H9.3132C9.2932 13.6967 9.17654 13.35 8.9632 13.11C8.75654 12.8633 8.4632 12.74 8.0832 12.74ZM15.3285 16.24C15.4285 16.34 15.4785 16.4567 15.4785 16.59C15.4785 16.7167 15.4318 16.8267 15.3385 16.92C15.2518 17.0067 15.1452 17.05 15.0185 17.05C14.8918 17.05 14.7752 16.9933 14.6685 16.88L13.1385 15.16L11.6185 16.88C11.5118 16.9933 11.3952 17.05 11.2685 17.05C11.1418 17.05 11.0318 17.0033 10.9385 16.91C10.8518 16.8167 10.8085 16.7067 10.8085 16.58C10.8085 16.4533 10.8552 16.34 10.9485 16.24L12.5285 14.5L11.0285 12.83C10.9285 12.7167 10.8785 12.6033 10.8785 12.49C10.8785 12.3633 10.9252 12.2567 11.0185 12.17C11.1118 12.0767 11.2185 12.03 11.3385 12.03C11.4652 12.03 11.5818 12.0867 11.6885 12.2L13.1385 13.84L14.5885 12.2C14.6952 12.0867 14.8152 12.03 14.9485 12.03C15.0685 12.03 15.1752 12.0767 15.2685 12.17C15.3618 12.2567 15.4085 12.3633 15.4085 12.49C15.4085 12.6167 15.3585 12.73 15.2585 12.83L13.7585 14.5L15.3285 16.24ZM18.8824 16.28C19.0291 16.2933 19.1324 16.3333 19.1924 16.4C19.2591 16.46 19.2924 16.5467 19.2924 16.66C19.2924 16.7933 19.2391 16.8967 19.1324 16.97C19.0324 17.0367 18.8824 17.0633 18.6824 17.05L18.4124 17.03C17.8724 16.99 17.4691 16.8267 17.2024 16.54C16.9358 16.2467 16.8024 15.8167 16.8024 15.25V12.9H16.2024C15.9091 12.9 15.7624 12.77 15.7624 12.51C15.7624 12.39 15.7991 12.2967 15.8724 12.23C15.9524 12.1567 16.0624 12.12 16.2024 12.12H16.8024V11.09C16.8024 10.9367 16.8458 10.8167 16.9324 10.73C17.0258 10.6433 17.1491 10.6 17.3024 10.6C17.4558 10.6 17.5791 10.6433 17.6724 10.73C17.7658 10.8167 17.8124 10.9367 17.8124 11.09V12.12H18.8024C18.9424 12.12 19.0491 12.1567 19.1224 12.23C19.2024 12.2967 19.2424 12.39 19.2424 12.51C19.2424 12.6367 19.2024 12.7333 19.1224 12.8C19.0491 12.8667 18.9424 12.9 18.8024 12.9H17.8124V15.32C17.8124 15.6333 17.8758 15.8633 18.0024 16.01C18.1358 16.1567 18.3358 16.24 18.6024 16.26L18.8824 16.28ZM25.1445 17.08C24.6379 17.08 24.1545 17.01 23.6945 16.87C23.2412 16.73 22.8779 16.5367 22.6045 16.29C22.4779 16.1833 22.4145 16.0467 22.4145 15.88C22.4145 15.76 22.4479 15.66 22.5145 15.58C22.5812 15.4933 22.6612 15.45 22.7545 15.45C22.8479 15.45 22.9612 15.4933 23.0945 15.58C23.6879 16.02 24.3645 16.24 25.1245 16.24C25.6579 16.24 26.0679 16.14 26.3545 15.94C26.6412 15.74 26.7845 15.4533 26.7845 15.08C26.7845 14.7867 26.6512 14.5667 26.3845 14.42C26.1179 14.2733 25.6912 14.1333 25.1045 14C24.5445 13.88 24.0845 13.7433 23.7245 13.59C23.3645 13.4367 23.0812 13.23 22.8745 12.97C22.6745 12.7033 22.5745 12.3667 22.5745 11.96C22.5745 11.5533 22.6845 11.1933 22.9045 10.88C23.1312 10.56 23.4445 10.3133 23.8445 10.14C24.2445 9.96 24.7012 9.87 25.2145 9.87C25.6879 9.87 26.1245 9.93667 26.5245 10.07C26.9245 10.2033 27.2645 10.4 27.5445 10.66C27.6779 10.7733 27.7445 10.91 27.7445 11.07C27.7445 11.1833 27.7079 11.2833 27.6345 11.37C27.5679 11.4567 27.4879 11.5 27.3945 11.5C27.3079 11.5 27.1979 11.4567 27.0645 11.37C26.7579 11.1367 26.4679 10.97 26.1945 10.87C25.9279 10.7633 25.6045 10.71 25.2245 10.71C24.7112 10.71 24.3112 10.8167 24.0245 11.03C23.7379 11.2367 23.5945 11.5267 23.5945 11.9C23.5945 12.22 23.7212 12.4633 23.9745 12.63C24.2279 12.79 24.6345 12.9367 25.1945 13.07C25.7812 13.2033 26.2545 13.3433 26.6145 13.49C26.9812 13.63 27.2712 13.8267 27.4845 14.08C27.7045 14.3267 27.8145 14.6467 27.8145 15.04C27.8145 15.44 27.7012 15.7967 27.4745 16.11C27.2545 16.4167 26.9412 16.6567 26.5345 16.83C26.1345 16.9967 25.6712 17.08 25.1445 17.08ZM29.4941 17.05C29.3474 17.05 29.2241 17.01 29.1241 16.93C29.0307 16.85 28.9841 16.73 28.9841 16.57V12.51C28.9841 12.35 29.0307 12.23 29.1241 12.15C29.2241 12.0633 29.3474 12.02 29.4941 12.02C29.6407 12.02 29.7607 12.0633 29.8541 12.15C29.9474 12.23 29.9941 12.35 29.9941 12.51V16.57C29.9941 16.73 29.9474 16.85 29.8541 16.93C29.7607 17.01 29.6407 17.05 29.4941 17.05ZM29.4941 11.04C29.3007 11.04 29.1474 10.9867 29.0341 10.88C28.9207 10.7733 28.8641 10.6333 28.8641 10.46C28.8641 10.2867 28.9207 10.15 29.0341 10.05C29.1474 9.94333 29.3007 9.89 29.4941 9.89C29.6807 9.89 29.8307 9.94333 29.9441 10.05C30.0641 10.15 30.1241 10.2867 30.1241 10.46C30.1241 10.6333 30.0674 10.7733 29.9541 10.88C29.8407 10.9867 29.6874 11.04 29.4941 11.04ZM35.0359 16.22C35.1826 16.22 35.2926 16.2567 35.3659 16.33C35.4459 16.3967 35.4859 16.49 35.4859 16.61C35.4859 16.73 35.4459 16.8267 35.3659 16.9C35.2926 16.9667 35.1826 17 35.0359 17H31.6159C31.4693 17 31.3526 16.96 31.2659 16.88C31.1793 16.7933 31.1359 16.6867 31.1359 16.56C31.1359 16.4333 31.1859 16.31 31.2859 16.19L34.0659 12.9H31.5559C31.4159 12.9 31.3059 12.8667 31.2259 12.8C31.1526 12.7267 31.1159 12.63 31.1159 12.51C31.1159 12.39 31.1526 12.2967 31.2259 12.23C31.3059 12.1567 31.4159 12.12 31.5559 12.12H34.8759C35.0159 12.12 35.1293 12.1633 35.2159 12.25C35.3093 12.3367 35.3559 12.44 35.3559 12.56C35.3559 12.6867 35.3059 12.81 35.2059 12.93L32.4259 16.22H35.0359ZM40.2073 15.77C40.3007 15.77 40.3773 15.8067 40.4373 15.88C40.4973 15.9533 40.5273 16.0467 40.5273 16.16C40.5273 16.3533 40.4073 16.5167 40.1673 16.65C39.934 16.7833 39.6773 16.8867 39.3973 16.96C39.124 17.0333 38.8607 17.07 38.6073 17.07C37.834 17.07 37.224 16.8467 36.7773 16.4C36.3307 15.9467 36.1073 15.33 36.1073 14.55C36.1073 14.05 36.204 13.6067 36.3973 13.22C36.5973 12.8333 36.874 12.5333 37.2273 12.32C37.5873 12.1067 37.994 12 38.4473 12C39.1007 12 39.6173 12.21 39.9973 12.63C40.3773 13.05 40.5673 13.6167 40.5673 14.33C40.5673 14.5967 40.4473 14.73 40.2073 14.73H37.1173C37.184 15.7633 37.6807 16.28 38.6073 16.28C38.854 16.28 39.0673 16.2467 39.2473 16.18C39.4273 16.1133 39.6173 16.0267 39.8173 15.92C39.8373 15.9067 39.8907 15.88 39.9773 15.84C40.0707 15.7933 40.1473 15.77 40.2073 15.77ZM38.4673 12.74C38.0807 12.74 37.7707 12.8633 37.5373 13.11C37.304 13.3567 37.164 13.7033 37.1173 14.15H39.6973C39.6773 13.6967 39.5607 13.35 39.3473 13.11C39.1407 12.8633 38.8473 12.74 38.4673 12.74ZM42.1903 13.31C42.0103 13.31 41.857 13.25 41.7303 13.13C41.6103 13.01 41.5503 12.8567 41.5503 12.67C41.5503 12.4833 41.6103 12.33 41.7303 12.21C41.857 12.0833 42.0103 12.02 42.1903 12.02C42.3703 12.02 42.5203 12.0833 42.6403 12.21C42.7603 12.33 42.8203 12.4833 42.8203 12.67C42.8203 12.8567 42.7603 13.01 42.6403 13.13C42.5203 13.25 42.3703 13.31 42.1903 13.31ZM42.1903 17.05C42.0103 17.05 41.857 16.99 41.7303 16.87C41.6103 16.75 41.5503 16.5967 41.5503 16.41C41.5503 16.2233 41.6103 16.07 41.7303 15.95C41.857 15.8233 42.0103 15.76 42.1903 15.76C42.3703 15.76 42.5203 15.8233 42.6403 15.95C42.7603 16.07 42.8203 16.2233 42.8203 16.41C42.8203 16.5967 42.7603 16.75 42.6403 16.87C42.5203 16.99 42.3703 17.05 42.1903 17.05Z" fill="#181818"/>
<path d="M56.856 16.16C56.9027 16.272 56.926 16.3653 56.926 16.44C56.926 16.6173 56.8513 16.7667 56.702 16.888C56.562 17.0093 56.4033 17.07 56.226 17.07C56.1047 17.07 55.988 17.0373 55.876 16.972C55.7733 16.8973 55.694 16.7947 55.638 16.664L54.714 14.564H49.59L48.666 16.664C48.61 16.7947 48.526 16.8973 48.414 16.972C48.302 17.0373 48.1853 17.07 48.064 17.07C47.8773 17.07 47.7093 17.0093 47.56 16.888C47.42 16.7667 47.35 16.6173 47.35 16.44C47.35 16.3653 47.3733 16.272 47.42 16.16L51.368 7.522C51.4333 7.37267 51.536 7.256 51.676 7.172C51.8253 7.088 51.9793 7.046 52.138 7.046C52.2967 7.046 52.446 7.088 52.586 7.172C52.7353 7.256 52.8427 7.37267 52.908 7.522L56.856 16.16ZM50.108 13.416H54.21L52.152 8.782L50.108 13.416Z" fill="#627386"/>
<path d="M73.44 15.768C73.504 15.9067 73.536 16.0453 73.536 16.184C73.536 16.4293 73.4347 16.6373 73.232 16.808C73.04 16.9787 72.816 17.064 72.56 17.064C72.3893 17.064 72.2293 17.0213 72.08 16.936C71.9307 16.84 71.8133 16.696 71.728 16.504L70.768 14.36H65.136L64.176 16.504C64.0907 16.696 63.9733 16.84 63.824 16.936C63.6747 17.0213 63.5093 17.064 63.328 17.064C63.0827 17.064 62.8587 16.9787 62.656 16.808C62.4533 16.6373 62.352 16.4293 62.352 16.184C62.352 16.0453 62.384 15.9067 62.448 15.768L66.864 6.28C66.96 6.06667 67.104 5.90667 67.296 5.8C67.4987 5.68267 67.712 5.624 67.936 5.624C68.16 5.624 68.368 5.68267 68.56 5.8C68.7627 5.90667 68.912 6.06667 69.008 6.28L73.44 15.768ZM65.84 12.76H70.064L67.952 8.008L65.84 12.76Z" fill="#181818"/>
<path d="M90.672 15.92C90.732 16.064 90.762 16.184 90.762 16.28C90.762 16.508 90.666 16.7 90.474 16.856C90.294 17.012 90.09 17.09 89.862 17.09C89.706 17.09 89.556 17.048 89.412 16.964C89.28 16.868 89.178 16.736 89.106 16.568L87.918 13.868H81.33L80.142 16.568C80.07 16.736 79.962 16.868 79.818 16.964C79.674 17.048 79.524 17.09 79.368 17.09C79.128 17.09 78.912 17.012 78.72 16.856C78.54 16.7 78.45 16.508 78.45 16.28C78.45 16.184 78.48 16.064 78.54 15.92L83.616 4.814C83.7 4.622 83.832 4.472 84.012 4.364C84.204 4.256 84.402 4.202 84.606 4.202C84.81 4.202 85.002 4.256 85.182 4.364C85.374 4.472 85.512 4.622 85.596 4.814L90.672 15.92ZM81.996 12.392H87.27L84.624 6.434L81.996 12.392Z" fill="#627386"/>
<rect x="62" y="20" width="12" height="2" fill="#F7C91E"/>
</svg>
