<svg width="10" height="10" viewBox="0 0 10 10" fill="none" xmlns="http://www.w3.org/2000/svg">
<g clip-path="url(#clip0_4885_49694)">
<path d="M9.77851 1.24338C9.70598 1.11469 9.60054 1.00759 9.473 0.933061C9.34546 0.858528 9.2004 0.819237 9.05267 0.819214H0.947675C0.800034 0.819286 0.655062 0.85858 0.527594 0.933078C0.400126 1.00758 0.294738 1.1146 0.222214 1.2432C0.149691 1.3718 0.112635 1.51736 0.114839 1.66499C0.117043 1.81261 0.158428 1.957 0.234758 2.08338L4.28726 8.77921C4.36149 8.90186 4.46611 9.00328 4.59099 9.07367C4.71588 9.14406 4.85682 9.18105 5.00017 9.18105C5.14353 9.18105 5.28447 9.14406 5.40936 9.07367C5.53424 9.00328 5.63886 8.90186 5.71309 8.77921L9.76559 2.08338C9.84195 1.95706 9.88338 1.81272 9.88565 1.66513C9.88791 1.51754 9.85094 1.37199 9.77851 1.24338Z" fill="#627386"/>
</g>
<defs>
<clipPath id="clip0_4885_49694">
<rect width="10" height="10" fill="white"/>
</clipPath>
</defs>
</svg>
