<?xml version="1.0" encoding="utf-8"?>
<!-- Generator: Adobe Illustrator 27.0.0, SVG Export Plug-In . SVG Version: 6.00 Build 0)  -->
<svg version="1.1" id="Layer_1" xmlns="http://www.w3.org/2000/svg" xmlns:xlink="http://www.w3.org/1999/xlink" x="0px" y="0px"
	 viewBox="0 0 2513.91 273.05" style="enable-background:new 0 0 2513.91 273.05;" xml:space="preserve">
<style type="text/css">
	.st0{fill:#214158;}
	.st1{clip-path:url(#SVGID_00000145037688342458730650000000180742763107114676_);}
	.st2{clip-path:url(#SVGID_00000170981655181536535320000011343253172099505080_);}
	.st3{clip-path:url(#SVGID_00000024685004979608094770000007385034376977856948_);}
	.st4{fill:none;stroke:#000000;stroke-width:0.25;stroke-miterlimit:10;}
	
		.st5{clip-path:url(#SVGID_00000132046304773817858920000011224235336154350267_);fill:url(#SVGID_00000070811364935523483270000012361725828874388358_);}
	.st6{clip-path:url(#SVGID_00000142877232270220729620000005782942971802719130_);}
	.st7{clip-path:url(#SVGID_00000115503203145007581190000013457157775599242936_);}
	.st8{clip-path:url(#SVGID_00000093147760111298818830000002202574232109352082_);}
	.st9{clip-path:url(#SVGID_00000160152677447617412260000015502560499386187709_);}
	.st10{fill:#FFFFFF;}
	.st11{fill:#FF8472;}
	.st12{fill:#6E2554;}
	.st13{fill:#007CC1;}
	.st14{clip-path:url(#SVGID_00000028312169257038315510000016713805301546141847_);}
	.st15{fill:#355263;}
	.st16{fill:#FFFFFF;filter:url(#Adobe_OpacityMaskFilter);}
	.st17{mask:url(#mask2_00000121265578101971741010000015778889614029673642_);}
	.st18{fill:none;}
	.st19{clip-path:url(#SVGID_00000050665135221732632400000015709504137167689905_);}
	
		.st20{clip-path:url(#SVGID_00000050624216180051931160000015410766169704927381_);fill:url(#SVGID_00000151528399610103723850000015120437993532479408_);}
</style>
<g>
	<g>
		<g>
			<path class="st0" d="M1205.63,230.68V0h-76.34v9.19c27.71,0,33.55-3.14,33.55,18.31v53.47c-10.24-5.36-22.6-8.76-37.59-8.76
				c-51.05,0-102.1,39.84-102.1,105.06c0,21.58,6.4,40.28,17.08,55.02l-5.9,7.14c-6.81,7.01-11.18,10.07-18.96,10.07
				c-8.27,0-16.05-6.56-16.05-20.14V137c0-40.71-27.23-64.78-69.04-64.78c-38.9,0-70.02,23.64-82.66,56.03l9.72,3.5
				c11.67-24.08,30.63-38.53,53.48-38.53c32.58,0,45.7,21.45,45.7,47.28v15.32l-50.08,16.2c-36.47,12.69-61.75,26.26-61.75,53.4
				c0,7.51,1.97,14.08,5.33,19.7c-5.38,3.45-11.3,5.56-18.28,5.56c-22.85,0-33.06-15.75-33.06-37.21V71.41h48.25V58.71H798.7V9.19
				h-42.79v49.52h-26.25v12.69h26.26v146.58c0,29.33,24.31,49.46,54.94,49.46c17.93,0,32.8-5.16,45.15-14.71
				c9.61,9.53,24.26,14.71,39.76,14.71c26.74,0,48.62-15.32,61.26-30.2c5.35,18.83,21.88,30.2,42.3,30.2
				c17.99,0,32.09-10.07,40.84-22.32l5.18-6.43c16.06,18.14,39.38,28.75,65.31,28.75c20.94,0,39.39-8.08,52.18-18.46v14.08h71.47
				v-9.19C1211.46,253.89,1205.63,252.13,1205.63,230.68z M956.54,229.81c-10.7,10.94-24.31,17.95-37.92,17.95
				c-20.42,0-34.04-12.26-34.04-31.08c0-20.14,14.59-30.2,33.06-36.33l38.9-13.14V229.81z M1162.85,239.42
				c-9.29,6.24-21.03,9.64-32.24,9.64c-40.84,0-64.18-35.9-64.18-80.98c0-55.6,31.12-83.18,67.1-83.18c10.92,0,21.05,2.1,29.33,6.23
				V239.42z M416.24,72.22c-51.54,0-100.65,39.84-100.65,97.62c0,57.34,49.11,97.61,100.65,97.61c51.54,0,100.65-40.27,100.65-97.61
				C516.89,112.05,467.78,72.22,416.24,72.22z M416.24,256.07c-33.06,0-55.91-29.33-55.91-86.24c0-57.35,22.85-86.68,55.91-86.68
				c33.06,0,55.91,29.33,55.91,86.68C472.16,226.74,449.31,256.07,416.24,256.07z M1427.9,232.38l-5.83,7.06
				c-6.81,7.01-11.18,10.07-18.96,10.07c-8.27,0-16.05-6.56-16.05-20.14V137c0-40.71-27.23-64.78-69.04-64.78
				c-38.9,0-70.02,23.64-82.66,56.03l9.72,3.5c11.67-24.08,30.63-38.53,53.49-38.53c32.58,0,45.7,21.45,45.7,47.28v15.32
				l-50.08,16.2c-36.47,12.69-61.75,26.26-61.75,53.4c0,26.71,24.31,42.02,51.05,42.02c26.74,0,48.62-15.32,61.26-30.2
				c5.35,18.83,21.88,30.2,42.3,30.2c17.99,0,32.09-10.07,40.84-22.32l5.13-6.35L1427.9,232.38z M1344.27,229.81
				c-10.69,10.94-24.31,17.95-37.92,17.95c-20.42,0-34.04-12.26-34.04-31.08c0-20.14,14.59-30.2,33.06-36.33l38.9-13.14V229.81z
				 M745.61,253.89v9.19H645.45v-9.19c22.85,0,28.69-1.75,28.69-23.2v-87.11c0-31.96-15.07-49.03-43.27-49.03
				c-19.94,0-36.47,12.69-43.76,27.14v109c0,21.45,6.32,23.2,29.17,23.2v9.19H515.63v-9.19c22.85,0,28.69-1.75,28.69-23.2V108.55
				c0-21.45-5.84-22.76-28.69-22.76v-9.19h71.47v36.33c9.24-17.07,33.55-40.71,66.61-40.71c43.27,0,63.21,28.89,63.21,63.91v94.55
				C716.92,252.13,722.76,253.89,745.61,253.89z"/>
		</g>
		<g>
			<defs>
				<path id="SVGID_00000047055369630799228120000013655166428510199689_" d="M1629.26,88.9v162.84c0,4.66-1.5,8.26-4.5,10.82
					c-3,2.55-6.61,3.83-10.82,3.83c-4.12,0-7.68-1.3-10.68-3.9c-3-2.6-4.5-6.18-4.5-10.75v-72.82h-93.11v72.82
					c0,4.66-1.5,8.26-4.5,10.82c-3,2.55-6.61,3.83-10.82,3.83c-4.12,0-7.68-1.3-10.68-3.9c-3-2.6-4.5-6.18-4.5-10.75V88.9
					c0-4.57,1.5-8.17,4.5-10.82c3-2.64,6.6-3.96,10.82-3.96c4.12,0,7.68,1.3,10.68,3.9c3,2.6,4.5,6.23,4.5,10.88v65.7h93.11V88.9
					c0-4.57,1.5-8.17,4.5-10.82c3-2.64,6.6-3.96,10.82-3.96c4.21,0,7.79,1.3,10.75,3.9C1627.78,80.61,1629.26,84.24,1629.26,88.9z
					 M1793.04,242.33h-86.12v-62.74h78.06c3.76,0,6.7-1.19,8.8-3.56c2.1-2.37,3.16-5.13,3.16-8.26c0-3.22-1.03-6-3.09-8.33
					c-2.06-2.33-5.02-3.49-8.87-3.49h-78.06V98.3h82.89c3.67,0,6.54-1.23,8.6-3.69c2.06-2.46,3.09-5.31,3.09-8.53
					s-1.03-6.05-3.09-8.46c-2.06-2.42-4.93-3.63-8.6-3.63h-98.88c-4.03,0-7.46,1.48-10.28,4.43c-2.82,2.96-4.23,6.4-4.23,10.34
					v162.97c0,3.85,1.55,7.28,4.64,10.28c3.09,3,6.56,4.5,10.41,4.5h101.57c3.76,0,6.67-1.21,8.73-3.63
					c2.06-2.42,3.09-5.19,3.09-8.33c0-3.22-1.03-6.07-3.09-8.53C1799.71,243.56,1796.8,242.33,1793.04,242.33z M2005.32,249.18
					c0.72,1.79,1.07,3.54,1.07,5.24c0,2.51-0.74,4.77-2.22,6.79c-1.48,2.01-3.36,3.56-5.64,4.63c-2.28,1.07-4.72,1.61-7.32,1.61
					c-6-0.45-10.61-3.72-13.84-9.81l-14.78-38.29h-90.42l-14.78,38.29c-1.26,3.31-3.11,5.78-5.58,7.39
					c-2.47,1.61-5.22,2.42-8.26,2.42c-2.78,0-5.46-0.67-8.06-2.01c-4.75-2.6-7.12-6.31-7.12-11.15c0-1.7,0.36-3.4,1.07-5.11
					l63.01-157.06c3.13-7.88,6.65-13.12,10.55-15.72c3.9-2.6,8.71-3.9,14.44-3.9c5.64,0,10.41,1.3,14.31,3.9
					c3.9,2.6,7.41,7.84,10.55,15.72L2005.32,249.18z M1954.26,197.59l-36.81-95.66l-36.95,95.66H1954.26z M2150.15,242.33h-82.09
					V88.9c0-4.66-1.48-8.28-4.43-10.88c-2.96-2.6-6.5-3.9-10.61-3.9c-4.21,0-7.84,1.3-10.88,3.9c-3.05,2.6-4.57,6.23-4.57,10.88
					v162.43c0,4.21,1.55,7.79,4.64,10.75c3.09,2.96,6.69,4.43,10.82,4.43h97.14c3.76,0,6.69-1.21,8.8-3.63
					c2.1-2.42,3.16-5.24,3.16-8.46c0-3.22-1.05-6.05-3.16-8.46C2156.84,243.54,2153.91,242.33,2150.15,242.33z M2306.8,73.98h-127.5
					c-3.76,0-6.72,1.21-8.87,3.63c-2.15,2.42-3.22,5.29-3.22,8.6c0,3.22,1.08,6.05,3.22,8.46c2.15,2.42,5.11,3.63,8.87,3.63h48.64
					v153.43c0,4.66,1.52,8.31,4.57,10.95c3.04,2.64,6.63,3.96,10.75,3.96s7.7-1.32,10.75-3.96c3.04-2.64,4.57-6.29,4.57-10.95V98.3
					h48.23c3.76,0,6.72-1.21,8.87-3.63c2.15-2.42,3.22-5.28,3.22-8.6c0-3.22-1.08-6.05-3.22-8.46
					C2313.52,75.19,2310.56,73.98,2306.8,73.98z M2495.57,78.01c-2.95-2.6-6.54-3.9-10.75-3.9c-4.21,0-7.81,1.32-10.82,3.96
					c-3,2.64-4.5,6.25-4.5,10.82v65.7h-93.11V88.9c0-4.66-1.5-8.28-4.5-10.88c-3-2.6-6.56-3.9-10.68-3.9
					c-4.21,0-7.82,1.32-10.82,3.96c-3,2.64-4.5,6.25-4.5,10.82v162.84c0,4.57,1.5,8.15,4.5,10.75c3,2.6,6.56,3.9,10.68,3.9
					c4.21,0,7.81-1.28,10.82-3.83c3-2.55,4.5-6.16,4.5-10.82v-72.82h93.11v72.82c0,4.57,1.5,8.15,4.5,10.75
					c3,2.6,6.56,3.9,10.68,3.9c4.21,0,7.81-1.28,10.82-3.83c3-2.55,4.5-6.16,4.5-10.82V88.9C2500,84.24,2498.52,80.61,2495.57,78.01
					z"/>
			</defs>
			
				<linearGradient id="SVGID_00000086669884181559858550000002318057749407877251_" gradientUnits="userSpaceOnUse" x1="2154.7119" y1="-119.1367" x2="1820.5535" y2="459.6426">
				<stop  offset="0" style="stop-color:#FF5B42"/>
				<stop  offset="0.6396" style="stop-color:#6E2554"/>
				<stop  offset="1" style="stop-color:#30344F"/>
			</linearGradient>
			
				<use xlink:href="#SVGID_00000047055369630799228120000013655166428510199689_"  style="overflow:visible;fill:url(#SVGID_00000086669884181559858550000002318057749407877251_);"/>
			<clipPath id="SVGID_00000071529191768695910030000011959012794674237838_">
				<use xlink:href="#SVGID_00000047055369630799228120000013655166428510199689_"  style="overflow:visible;"/>
			</clipPath>
			
				<linearGradient id="SVGID_00000121969983031470686620000002888761512805062289_" gradientUnits="userSpaceOnUse" x1="2208.2129" y1="-162.1386" x2="1767.9998" y2="600.3329">
				<stop  offset="0" style="stop-color:#FF5B42"/>
				<stop  offset="0.6396" style="stop-color:#6E2554"/>
				<stop  offset="1" style="stop-color:#30344F"/>
			</linearGradient>
			
				<rect x="1462.3" y="14.36" style="clip-path:url(#SVGID_00000071529191768695910030000011959012794674237838_);fill:url(#SVGID_00000121969983031470686620000002888761512805062289_);" width="1051.61" height="409.48"/>
		</g>
	</g>
	<g>
		<circle class="st11" cx="134.53" cy="49.85" r="42.25"/>
		<g>
			<g>
				<circle class="st12" cx="134.43" cy="218.84" r="42.25"/>
				<g>
					<path class="st0" d="M72.91,168.99H49.85c-19.1,0-34.65-15.54-34.65-34.65S30.74,99.7,49.85,99.7h84.68
						c27.49,0,49.85-22.36,49.85-49.85S162.01,0,134.53,0S84.68,22.36,84.68,49.85c0,13.45,5.36,25.67,14.05,34.65H49.85
						C22.36,84.49,0,106.86,0,134.34s22.36,49.85,49.85,49.85h23.07c4.2,0,7.6-3.4,7.6-7.6C80.51,172.39,77.11,168.99,72.91,168.99z
						 M99.88,49.85c0-19.1,15.54-34.65,34.65-34.65s34.65,15.54,34.65,34.65s-15.54,34.65-34.65,34.65S99.88,68.95,99.88,49.85z"/>
					<path class="st0" d="M219.11,84.49h-23.07c-4.2,0-7.6,3.4-7.6,7.6s3.4,7.6,7.6,7.6h23.07c19.1,0,34.65,15.54,34.65,34.65
						s-15.54,34.65-34.65,34.65h-84.68c-27.49,0-49.85,22.36-49.85,49.85s22.36,49.85,49.85,49.85s49.85-22.36,49.85-49.85
						c0-13.45-5.36-25.67-14.05-34.65h48.88c27.49,0,49.85-22.36,49.85-49.85S246.6,84.49,219.11,84.49z M169.08,218.84
						c0,19.1-15.54,34.65-34.65,34.65s-34.65-15.54-34.65-34.65s15.54-34.65,34.65-34.65S169.08,199.73,169.08,218.84z"/>
				</g>
			</g>
		</g>
	</g>
</g>
</svg>
